STARTFONT 2.1
FONT -Patrick J. Thomas-mono_size_2_design_1-Normal-R-Normal-Regular-9-90-96-96-P-0-ISO8859-1
SIZE 9 96 96
FONTBOUNDINGBOX 5 11 0 -2
STARTPROPERTIES 30
FAMILY_NAME "mono_size_2_design_1"
DEFAULT_CHAR -1
FOUNDRY "Patrick J. Thomas"
COPYRIGHT "Copyright (c) 2025, Patrick J. Thomas. All rights reserved."
CODEPAGE "MS Windows 1252 Western (ANSI)"
ENC_MODE 2
DESIGNER "Patrick J. Thomas"
CREATION_YEAR 2025
WEIGHT_NAME "Normal"
SLANT "R"
SETWIDTH_NAME "Normal"
ADD_STYLE_NAME "Regular"
SPACING "P"
WEIGHT 400
FACE_NAME "mono_size_2_design_1"
HI_VERSION 1
MENU_NAME "mono_size_2_design_1"
FONT_NAME "mono_size_2_design_1"
FONTNAME_REGISTRY "-"
CHARSET_REGISTRY "ISO8859"
CHARSET_ENCODING "1"
BREAK_CHAR 32
PIXEL_SIZE 12
POINT_SIZE 90
FONT_ASCENT 9
FONT_DESCENT 3
RESOLUTION_X 96
RESOLUTION_Y 96
X_HEIGHT 5
CAP_HEIGHT 9
ENDPROPERTIES
CHARS 95
STARTCHAR char32.uni0020
ENCODING 32
SWIDTH 768 0
DWIDTH 6 0
BBX 0 0 0 0
BITMAP
ENDCHAR
STARTCHAR char33.uni0021
ENCODING 33
SWIDTH 768 0
DWIDTH 6 0
BBX 1 9 2 0
BITMAP
8000
8000
8000
8000
8000
8000
8000
0000
8000
ENDCHAR
STARTCHAR char34.uni0022
ENCODING 34
SWIDTH 768 0
DWIDTH 6 0
BBX 3 3 1 6
BITMAP
A000
A000
A000
ENDCHAR
STARTCHAR char35.uni0023
ENCODING 35
SWIDTH 768 0
DWIDTH 6 0
BBX 5 5 0 2
BITMAP
5000
F800
5000
F800
5000
ENDCHAR
STARTCHAR char36.uni0024
ENCODING 36
SWIDTH 768 0
DWIDTH 6 0
BBX 5 10 0 -1
BITMAP
2000
2000
7000
A000
F000
2800
A800
7000
2000
2000
ENDCHAR
STARTCHAR char37.uni0025
ENCODING 37
SWIDTH 768 0
DWIDTH 6 0
BBX 5 5 0 2
BITMAP
8800
1000
2000
4000
8800
ENDCHAR
STARTCHAR char38.uni0026
ENCODING 38
SWIDTH 768 0
DWIDTH 6 0
BBX 5 9 0 0
BITMAP
2000
5000
5000
2000
4000
8000
8800
8800
7000
ENDCHAR
STARTCHAR char39.uni0027
ENCODING 39
SWIDTH 768 0
DWIDTH 6 0
BBX 3 3 1 6
BITMAP
2000
4000
8000
ENDCHAR
STARTCHAR char40.uni0028
ENCODING 40
SWIDTH 768 0
DWIDTH 6 0
BBX 3 11 1 -2
BITMAP
2000
4000
8000
8000
8000
8000
8000
8000
8000
4000
2000
ENDCHAR
STARTCHAR char41.uni0029
ENCODING 41
SWIDTH 768 0
DWIDTH 6 0
BBX 3 11 1 -2
BITMAP
8000
4000
2000
2000
2000
2000
2000
2000
2000
4000
8000
ENDCHAR
STARTCHAR char42.uni002A
ENCODING 42
SWIDTH 768 0
DWIDTH 6 0
BBX 5 5 0 1
BITMAP
2000
A800
7000
A800
2000
ENDCHAR
STARTCHAR char43.uni002B
ENCODING 43
SWIDTH 768 0
DWIDTH 6 0
BBX 5 5 0 1
BITMAP
2000
2000
F800
2000
2000
ENDCHAR
STARTCHAR char44.uni002C
ENCODING 44
SWIDTH 768 0
DWIDTH 6 0
BBX 3 3 1 -2
BITMAP
2000
4000
8000
ENDCHAR
STARTCHAR char45.uni002D
ENCODING 45
SWIDTH 768 0
DWIDTH 6 0
BBX 5 1 0 3
BITMAP
F800
ENDCHAR
STARTCHAR char46.uni002E
ENCODING 46
SWIDTH 768 0
DWIDTH 6 0
BBX 1 1 2 0
BITMAP
8000
ENDCHAR
STARTCHAR char47.uni002F
ENCODING 47
SWIDTH 768 0
DWIDTH 6 0
BBX 5 5 0 2
BITMAP
0800
1000
2000
4000
8000
ENDCHAR
STARTCHAR char48.uni0030
ENCODING 48
SWIDTH 768 0
DWIDTH 6 0
BBX 5 9 0 0
BITMAP
7000
8800
8800
9800
A800
C800
8800
8800
7000
ENDCHAR
STARTCHAR char49.uni0031
ENCODING 49
SWIDTH 768 0
DWIDTH 6 0
BBX 3 9 1 0
BITMAP
4000
C000
4000
4000
4000
4000
4000
4000
E000
ENDCHAR
STARTCHAR char50.uni0032
ENCODING 50
SWIDTH 768 0
DWIDTH 6 0
BBX 5 9 0 0
BITMAP
7000
8800
8800
1000
2000
4000
8000
8000
F800
ENDCHAR
STARTCHAR char51.uni0033
ENCODING 51
SWIDTH 768 0
DWIDTH 6 0
BBX 5 9 0 0
BITMAP
7000
8800
0800
0800
3000
0800
0800
8800
7000
ENDCHAR
STARTCHAR char52.uni0034
ENCODING 52
SWIDTH 768 0
DWIDTH 6 0
BBX 5 9 0 0
BITMAP
1000
3000
5000
9000
F800
1000
1000
1000
1000
ENDCHAR
STARTCHAR char53.uni0035
ENCODING 53
SWIDTH 768 0
DWIDTH 6 0
BBX 5 9 0 0
BITMAP
F800
8000
8000
F000
0800
0800
8800
8800
7000
ENDCHAR
STARTCHAR char54.uni0036
ENCODING 54
SWIDTH 768 0
DWIDTH 6 0
BBX 5 9 0 0
BITMAP
7000
8800
8800
8000
F000
8800
8800
8800
7000
ENDCHAR
STARTCHAR char55.uni0037
ENCODING 55
SWIDTH 768 0
DWIDTH 6 0
BBX 5 9 0 0
BITMAP
F800
0800
0800
1000
2000
2000
2000
2000
2000
ENDCHAR
STARTCHAR char56.uni0038
ENCODING 56
SWIDTH 768 0
DWIDTH 6 0
BBX 5 9 0 0
BITMAP
7000
8800
8800
8800
7000
8800
8800
8800
7000
ENDCHAR
STARTCHAR char57.uni0039
ENCODING 57
SWIDTH 768 0
DWIDTH 6 0
BBX 5 9 0 0
BITMAP
7000
8800
8800
8800
7800
0800
8800
8800
7000
ENDCHAR
STARTCHAR char58.uni003A
ENCODING 58
SWIDTH 768 0
DWIDTH 6 0
BBX 1 6 2 0
BITMAP
8000
0000
0000
0000
0000
8000
ENDCHAR
STARTCHAR char59.uni003B
ENCODING 59
SWIDTH 768 0
DWIDTH 6 0
BBX 2 7 1 -1
BITMAP
4000
0000
0000
0000
0000
4000
8000
ENDCHAR
STARTCHAR char60.uni003C
ENCODING 60
SWIDTH 768 0
DWIDTH 6 0
BBX 4 7 1 0
BITMAP
1000
2000
4000
8000
4000
2000
1000
ENDCHAR
STARTCHAR char61.uni003D
ENCODING 61
SWIDTH 768 0
DWIDTH 6 0
BBX 5 3 0 2
BITMAP
F800
0000
F800
ENDCHAR
STARTCHAR char62.uni003E
ENCODING 62
SWIDTH 768 0
DWIDTH 6 0
BBX 4 7 1 0
BITMAP
8000
4000
2000
1000
2000
4000
8000
ENDCHAR
STARTCHAR char63.uni003F
ENCODING 63
SWIDTH 768 0
DWIDTH 6 0
BBX 5 9 0 0
BITMAP
7000
8800
8800
0800
1000
2000
2000
0000
2000
ENDCHAR
STARTCHAR char64.uni0040
ENCODING 64
SWIDTH 768 0
DWIDTH 6 0
BBX 5 9 0 -2
BITMAP
7000
8800
8800
9800
A800
A800
9800
8000
7000
ENDCHAR
STARTCHAR char65.uni0041
ENCODING 65
SWIDTH 768 0
DWIDTH 6 0
BBX 5 9 0 0
BITMAP
7000
8800
8800
8800
F800
8800
8800
8800
8800
ENDCHAR
STARTCHAR char66.uni0042
ENCODING 66
SWIDTH 768 0
DWIDTH 6 0
BBX 5 9 0 0
BITMAP
F000
8800
8800
8800
F000
8800
8800
8800
F000
ENDCHAR
STARTCHAR char67.uni0043
ENCODING 67
SWIDTH 768 0
DWIDTH 6 0
BBX 5 9 0 0
BITMAP
7000
8800
8000
8000
8000
8000
8000
8800
7000
ENDCHAR
STARTCHAR char68.uni0044
ENCODING 68
SWIDTH 768 0
DWIDTH 6 0
BBX 5 9 0 0
BITMAP
F000
8800
8800
8800
8800
8800
8800
8800
F000
ENDCHAR
STARTCHAR char69.uni0045
ENCODING 69
SWIDTH 768 0
DWIDTH 6 0
BBX 5 9 0 0
BITMAP
F800
8000
8000
8000
F000
8000
8000
8000
F800
ENDCHAR
STARTCHAR char70.uni0046
ENCODING 70
SWIDTH 768 0
DWIDTH 6 0
BBX 5 9 0 0
BITMAP
F800
8000
8000
8000
F000
8000
8000
8000
8000
ENDCHAR
STARTCHAR char71.uni0047
ENCODING 71
SWIDTH 768 0
DWIDTH 6 0
BBX 5 9 0 0
BITMAP
7000
8800
8000
8000
9800
8800
8800
8800
7000
ENDCHAR
STARTCHAR char72.uni0048
ENCODING 72
SWIDTH 768 0
DWIDTH 6 0
BBX 5 9 0 0
BITMAP
8800
8800
8800
8800
F800
8800
8800
8800
8800
ENDCHAR
STARTCHAR char73.uni0049
ENCODING 73
SWIDTH 768 0
DWIDTH 6 0
BBX 3 9 1 0
BITMAP
E000
4000
4000
4000
4000
4000
4000
4000
E000
ENDCHAR
STARTCHAR char74.uni004A
ENCODING 74
SWIDTH 768 0
DWIDTH 6 0
BBX 5 9 0 0
BITMAP
0800
0800
0800
0800
0800
0800
8800
8800
7000
ENDCHAR
STARTCHAR char75.uni004B
ENCODING 75
SWIDTH 768 0
DWIDTH 6 0
BBX 5 9 0 0
BITMAP
8800
9000
A000
C000
8000
C000
A000
9000
8800
ENDCHAR
STARTCHAR char76.uni004C
ENCODING 76
SWIDTH 768 0
DWIDTH 6 0
BBX 5 9 0 0
BITMAP
8000
8000
8000
8000
8000
8000
8000
8000
F800
ENDCHAR
STARTCHAR char77.uni004D
ENCODING 77
SWIDTH 768 0
DWIDTH 6 0
BBX 5 9 0 0
BITMAP
8800
D800
A800
8800
8800
8800
8800
8800
8800
ENDCHAR
STARTCHAR char78.uni004E
ENCODING 78
SWIDTH 768 0
DWIDTH 6 0
BBX 5 9 0 0
BITMAP
8800
C800
A800
9800
8800
8800
8800
8800
8800
ENDCHAR
STARTCHAR char79.uni004F
ENCODING 79
SWIDTH 768 0
DWIDTH 6 0
BBX 5 9 0 0
BITMAP
7000
8800
8800
8800
8800
8800
8800
8800
7000
ENDCHAR
STARTCHAR char80.uni0050
ENCODING 80
SWIDTH 768 0
DWIDTH 6 0
BBX 5 9 0 0
BITMAP
F000
8800
8800
8800
F000
8000
8000
8000
8000
ENDCHAR
STARTCHAR char81.uni0051
ENCODING 81
SWIDTH 768 0
DWIDTH 6 0
BBX 5 11 0 -2
BITMAP
7000
8800
8800
8800
8800
8800
8800
8800
7000
0800
1000
ENDCHAR
STARTCHAR char82.uni0052
ENCODING 82
SWIDTH 768 0
DWIDTH 6 0
BBX 5 9 0 0
BITMAP
F000
8800
8800
8800
F000
8800
8800
8800
8800
ENDCHAR
STARTCHAR char83.uni0053
ENCODING 83
SWIDTH 768 0
DWIDTH 6 0
BBX 5 9 0 0
BITMAP
7000
8800
8000
8000
7000
0800
0800
8800
7000
ENDCHAR
STARTCHAR char84.uni0054
ENCODING 84
SWIDTH 768 0
DWIDTH 6 0
BBX 5 9 0 0
BITMAP
F800
2000
2000
2000
2000
2000
2000
2000
2000
ENDCHAR
STARTCHAR char85.uni0055
ENCODING 85
SWIDTH 768 0
DWIDTH 6 0
BBX 5 9 0 0
BITMAP
8800
8800
8800
8800
8800
8800
8800
8800
7000
ENDCHAR
STARTCHAR char86.uni0056
ENCODING 86
SWIDTH 768 0
DWIDTH 6 0
BBX 5 9 0 0
BITMAP
8800
8800
8800
8800
8800
8800
8800
5000
2000
ENDCHAR
STARTCHAR char87.uni0057
ENCODING 87
SWIDTH 768 0
DWIDTH 6 0
BBX 5 9 0 0
BITMAP
8800
8800
8800
8800
8800
8800
A800
D800
8800
ENDCHAR
STARTCHAR char88.uni0058
ENCODING 88
SWIDTH 768 0
DWIDTH 6 0
BBX 5 9 0 0
BITMAP
8800
8800
8800
5000
2000
5000
8800
8800
8800
ENDCHAR
STARTCHAR char89.uni0059
ENCODING 89
SWIDTH 768 0
DWIDTH 6 0
BBX 5 9 0 0
BITMAP
8800
8800
8800
5000
2000
2000
2000
2000
2000
ENDCHAR
STARTCHAR char90.uni005A
ENCODING 90
SWIDTH 768 0
DWIDTH 6 0
BBX 5 9 0 0
BITMAP
F800
0800
0800
1000
2000
4000
8000
8000
F800
ENDCHAR
STARTCHAR char91.uni005B
ENCODING 91
SWIDTH 768 0
DWIDTH 6 0
BBX 3 11 1 -2
BITMAP
E000
8000
8000
8000
8000
8000
8000
8000
8000
8000
E000
ENDCHAR
STARTCHAR char92.uni005C
ENCODING 92
SWIDTH 768 0
DWIDTH 6 0
BBX 5 5 0 2
BITMAP
8000
4000
2000
1000
0800
ENDCHAR
STARTCHAR char93.uni005D
ENCODING 93
SWIDTH 768 0
DWIDTH 6 0
BBX 3 11 1 -2
BITMAP
E000
2000
2000
2000
2000
2000
2000
2000
2000
2000
E000
ENDCHAR
STARTCHAR char94.uni005E
ENCODING 94
SWIDTH 768 0
DWIDTH 6 0
BBX 3 2 1 7
BITMAP
4000
A000
ENDCHAR
STARTCHAR char95.uni005F
ENCODING 95
SWIDTH 768 0
DWIDTH 6 0
BBX 5 1 0 0
BITMAP
F800
ENDCHAR
STARTCHAR char96.uni0060
ENCODING 96
SWIDTH 768 0
DWIDTH 6 0
BBX 3 3 1 6
BITMAP
8000
4000
2000
ENDCHAR
STARTCHAR char97.uni0061
ENCODING 97
SWIDTH 768 0
DWIDTH 6 0
BBX 5 5 0 0
BITMAP
7000
0800
7800
8800
7800
ENDCHAR
STARTCHAR char98.uni0062
ENCODING 98
SWIDTH 768 0
DWIDTH 6 0
BBX 5 9 0 0
BITMAP
8000
8000
8000
8000
F000
8800
8800
8800
F000
ENDCHAR
STARTCHAR char99.uni0063
ENCODING 99
SWIDTH 768 0
DWIDTH 6 0
BBX 5 5 0 0
BITMAP
7000
8800
8000
8800
7000
ENDCHAR
STARTCHAR char100.uni0064
ENCODING 100
SWIDTH 768 0
DWIDTH 6 0
BBX 5 9 0 0
BITMAP
0800
0800
0800
0800
7800
8800
8800
8800
7800
ENDCHAR
STARTCHAR char101.uni0065
ENCODING 101
SWIDTH 768 0
DWIDTH 6 0
BBX 5 5 0 0
BITMAP
7000
8800
F800
8000
7000
ENDCHAR
STARTCHAR char102.uni0066
ENCODING 102
SWIDTH 768 0
DWIDTH 6 0
BBX 3 9 1 0
BITMAP
2000
4000
4000
4000
E000
4000
4000
4000
4000
ENDCHAR
STARTCHAR char103.uni0067
ENCODING 103
SWIDTH 768 0
DWIDTH 6 0
BBX 5 7 0 -2
BITMAP
7800
8800
8800
8800
7800
0800
7000
ENDCHAR
STARTCHAR char104.uni0068
ENCODING 104
SWIDTH 768 0
DWIDTH 6 0
BBX 5 9 0 0
BITMAP
8000
8000
8000
8000
F000
8800
8800
8800
8800
ENDCHAR
STARTCHAR char105.uni0069
ENCODING 105
SWIDTH 768 0
DWIDTH 6 0
BBX 5 8 0 0
BITMAP
2000
0000
0000
6000
2000
2000
2000
F800
ENDCHAR
STARTCHAR char106.uni006A
ENCODING 106
SWIDTH 768 0
DWIDTH 6 0
BBX 5 10 0 -2
BITMAP
0800
0000
0000
1800
0800
0800
0800
8800
8800
7000
ENDCHAR
STARTCHAR char107.uni006B
ENCODING 107
SWIDTH 768 0
DWIDTH 6 0
BBX 5 9 0 0
BITMAP
8000
8000
8000
9000
A000
C000
A000
9000
8800
ENDCHAR
STARTCHAR char108.uni006C
ENCODING 108
SWIDTH 768 0
DWIDTH 6 0
BBX 5 9 0 0
BITMAP
6000
2000
2000
2000
2000
2000
2000
2000
F800
ENDCHAR
STARTCHAR char109.uni006D
ENCODING 109
SWIDTH 768 0
DWIDTH 6 0
BBX 5 5 0 0
BITMAP
F000
A800
A800
A800
A800
ENDCHAR
STARTCHAR char110.uni006E
ENCODING 110
SWIDTH 768 0
DWIDTH 6 0
BBX 5 5 0 0
BITMAP
F000
8800
8800
8800
8800
ENDCHAR
STARTCHAR char111.uni006F
ENCODING 111
SWIDTH 768 0
DWIDTH 6 0
BBX 5 5 0 0
BITMAP
7000
8800
8800
8800
7000
ENDCHAR
STARTCHAR char112.uni0070
ENCODING 112
SWIDTH 768 0
DWIDTH 6 0
BBX 5 7 0 -2
BITMAP
F000
8800
8800
8800
F000
8000
8000
ENDCHAR
STARTCHAR char113.uni0071
ENCODING 113
SWIDTH 768 0
DWIDTH 6 0
BBX 5 7 0 -2
BITMAP
7800
8800
8800
8800
7800
0800
0800
ENDCHAR
STARTCHAR char114.uni0072
ENCODING 114
SWIDTH 768 0
DWIDTH 6 0
BBX 5 5 0 0
BITMAP
F000
8800
8000
8000
8000
ENDCHAR
STARTCHAR char115.uni0073
ENCODING 115
SWIDTH 768 0
DWIDTH 6 0
BBX 5 5 0 0
BITMAP
7000
8000
F800
0800
7000
ENDCHAR
STARTCHAR char116.uni0074
ENCODING 116
SWIDTH 768 0
DWIDTH 6 0
BBX 5 9 0 0
BITMAP
2000
2000
2000
F800
2000
2000
2000
2000
2000
ENDCHAR
STARTCHAR char117.uni0075
ENCODING 117
SWIDTH 768 0
DWIDTH 6 0
BBX 5 5 0 0
BITMAP
8800
8800
8800
8800
7000
ENDCHAR
STARTCHAR char118.uni0076
ENCODING 118
SWIDTH 768 0
DWIDTH 6 0
BBX 5 5 0 0
BITMAP
8800
8800
8800
5000
2000
ENDCHAR
STARTCHAR char119.uni0077
ENCODING 119
SWIDTH 768 0
DWIDTH 6 0
BBX 5 5 0 0
BITMAP
A800
A800
A800
A800
F000
ENDCHAR
STARTCHAR char120.uni0078
ENCODING 120
SWIDTH 768 0
DWIDTH 6 0
BBX 5 5 0 0
BITMAP
8800
5000
2000
5000
8800
ENDCHAR
STARTCHAR char121.uni0079
ENCODING 121
SWIDTH 768 0
DWIDTH 6 0
BBX 5 7 0 -2
BITMAP
8800
8800
8800
8800
7800
0800
7000
ENDCHAR
STARTCHAR char122.uni007A
ENCODING 122
SWIDTH 768 0
DWIDTH 6 0
BBX 5 5 0 0
BITMAP
F800
1000
2000
4000
F800
ENDCHAR
STARTCHAR char123.uni007B
ENCODING 123
SWIDTH 768 0
DWIDTH 6 0
BBX 4 11 1 -2
BITMAP
3000
4000
4000
4000
4000
8000
4000
4000
4000
4000
3000
ENDCHAR
STARTCHAR char124.uni007C
ENCODING 124
SWIDTH 768 0
DWIDTH 6 0
BBX 1 10 2 -1
BITMAP
8000
8000
8000
8000
8000
8000
8000
8000
8000
8000
ENDCHAR
STARTCHAR char125.uni007D
ENCODING 125
SWIDTH 768 0
DWIDTH 6 0
BBX 4 11 1 -2
BITMAP
C000
2000
2000
2000
2000
1000
2000
2000
2000
2000
C000
ENDCHAR
STARTCHAR char126.uni007E
ENCODING 126
SWIDTH 768 0
DWIDTH 6 0
BBX 5 4 0 5
BITMAP
4000
A800
A800
1000
ENDCHAR
ENDFONT
