STARTFONT 2.1
FONT -Patrick J. Thomas-mono_size_1_design_3-Normal-R-Normal-Regular-7-70-96-96-P-50-ISO8859-1
SIZE 7 96 96
FONTBOUNDINGBOX 9 9 0 -2
STARTPROPERTIES 34
FAMILY_NAME "mono_size_1_design_3"
DEFAULT_CHAR -1
FOUNDRY "Patrick J. Thomas"
COPYRIGHT "Copyright (c) 2025, Patrick J. Thomas. All rights reserved."
CODEPAGE "MS Windows 1252 Western (ANSI)"
ENC_MODE 2
ENC_ID 1
DESIGNER "Patrick J. Thomas"
CREATION_YEAR 2025
WEIGHT_NAME "Normal"
SLANT "R"
SETWIDTH_NAME "Normal"
ADD_STYLE_NAME "Regular"
SPACING "P"
WEIGHT 400
FACE_NAME "mono_size_1_design_3"
HI_VERSION 1
MENU_NAME "mono_size_1_design_3"
FONT_NAME "mono_size_1_design_3"
CP_RANGE_1 65535
CP_RANGE_2 65535
FONTNAME_REGISTRY "-"
CHARSET_REGISTRY "ISO8859"
CHARSET_ENCODING "1"
BREAK_CHAR 32
PIXEL_SIZE 10
POINT_SIZE 70
FONT_ASCENT 7
FONT_DESCENT 3
RESOLUTION_X 96
RESOLUTION_Y 96
AVERAGE_WIDTH 50
X_HEIGHT 5
CAP_HEIGHT 7
ENDPROPERTIES
CHARS 150
STARTCHAR exclam.uni0021
ENCODING 33
SWIDTH 643 0
DWIDTH 6 0
BBX 1 7 2 0
BITMAP
8000
8000
8000
8000
8000
0000
8000
ENDCHAR
STARTCHAR quotedbl.uni0022
ENCODING 34
SWIDTH 643 0
DWIDTH 6 0
BBX 3 3 1 4
BITMAP
A000
A000
A000
ENDCHAR
STARTCHAR numbersign.uni0023
ENCODING 35
SWIDTH 643 0
DWIDTH 6 0
BBX 5 5 0 1
BITMAP
5000
F800
5000
F800
5000
ENDCHAR
STARTCHAR dollar.uni0024
ENCODING 36
SWIDTH 643 0
DWIDTH 6 0
BBX 5 8 0 -1
BITMAP
2000
7000
A000
F000
2800
A800
7000
2000
ENDCHAR
STARTCHAR percent.uni0025
ENCODING 37
SWIDTH 643 0
DWIDTH 6 0
BBX 5 5 0 1
BITMAP
8800
1000
2000
4000
8800
ENDCHAR
STARTCHAR ampersand.uni0026
ENCODING 38
SWIDTH 643 0
DWIDTH 6 0
BBX 5 7 0 0
BITMAP
6000
9000
8000
4000
A800
9000
6800
ENDCHAR
STARTCHAR quotesingle.uni0027
ENCODING 39
SWIDTH 643 0
DWIDTH 6 0
BBX 1 3 2 4
BITMAP
8000
8000
8000
ENDCHAR
STARTCHAR parenleft.uni0028
ENCODING 40
SWIDTH 643 0
DWIDTH 6 0
BBX 3 9 1 -2
BITMAP
2000
4000
8000
8000
8000
8000
8000
4000
2000
ENDCHAR
STARTCHAR parenright.uni0029
ENCODING 41
SWIDTH 643 0
DWIDTH 6 0
BBX 3 9 1 -2
BITMAP
8000
4000
2000
2000
2000
2000
2000
4000
8000
ENDCHAR
STARTCHAR asterisk.uni002A
ENCODING 42
SWIDTH 643 0
DWIDTH 6 0
BBX 5 5 0 1
BITMAP
2000
A800
7000
A800
2000
ENDCHAR
STARTCHAR plus.uni002B
ENCODING 43
SWIDTH 643 0
DWIDTH 6 0
BBX 5 5 0 1
BITMAP
2000
2000
F800
2000
2000
ENDCHAR
STARTCHAR comma.uni002C
ENCODING 44
SWIDTH 643 0
DWIDTH 6 0
BBX 3 3 1 -2
BITMAP
2000
4000
8000
ENDCHAR
STARTCHAR hyphen.uni002D
ENCODING 45
SWIDTH 643 0
DWIDTH 6 0
BBX 5 1 0 3
BITMAP
F800
ENDCHAR
STARTCHAR period.uni002E
ENCODING 46
SWIDTH 643 0
DWIDTH 6 0
BBX 1 1 2 0
BITMAP
8000
ENDCHAR
STARTCHAR slash.uni002F
ENCODING 47
SWIDTH 643 0
DWIDTH 6 0
BBX 5 5 0 1
BITMAP
0800
1000
2000
4000
8000
ENDCHAR
STARTCHAR zero.uni0030
ENCODING 48
SWIDTH 643 0
DWIDTH 6 0
BBX 5 7 0 0
BITMAP
7000
8800
9800
A800
C800
8800
7000
ENDCHAR
STARTCHAR one.uni0031
ENCODING 49
SWIDTH 643 0
DWIDTH 6 0
BBX 3 7 1 0
BITMAP
2000
6000
A000
2000
2000
2000
2000
ENDCHAR
STARTCHAR two.uni0032
ENCODING 50
SWIDTH 643 0
DWIDTH 6 0
BBX 5 7 0 0
BITMAP
7000
8800
0800
1000
2000
4000
F800
ENDCHAR
STARTCHAR three.uni0033
ENCODING 51
SWIDTH 643 0
DWIDTH 6 0
BBX 5 7 0 0
BITMAP
7000
8800
0800
3000
0800
8800
7000
ENDCHAR
STARTCHAR four.uni0034
ENCODING 52
SWIDTH 643 0
DWIDTH 6 0
BBX 5 7 0 0
BITMAP
1000
3000
5000
F800
1000
1000
1000
ENDCHAR
STARTCHAR five.uni0035
ENCODING 53
SWIDTH 643 0
DWIDTH 6 0
BBX 5 7 0 0
BITMAP
F800
8000
8000
F000
0800
8800
7000
ENDCHAR
STARTCHAR six.uni0036
ENCODING 54
SWIDTH 643 0
DWIDTH 6 0
BBX 5 7 0 0
BITMAP
7000
8800
8000
F000
8800
8800
7000
ENDCHAR
STARTCHAR seven.uni0037
ENCODING 55
SWIDTH 643 0
DWIDTH 6 0
BBX 5 7 0 0
BITMAP
F800
0800
0800
1000
2000
2000
2000
ENDCHAR
STARTCHAR eight.uni0038
ENCODING 56
SWIDTH 643 0
DWIDTH 6 0
BBX 5 7 0 0
BITMAP
7000
8800
8800
7000
8800
8800
7000
ENDCHAR
STARTCHAR nine.uni0039
ENCODING 57
SWIDTH 643 0
DWIDTH 6 0
BBX 5 7 0 0
BITMAP
7000
8800
8800
7800
0800
8800
7000
ENDCHAR
STARTCHAR colon.uni003A
ENCODING 58
SWIDTH 643 0
DWIDTH 6 0
BBX 1 6 2 0
BITMAP
8000
0000
0000
0000
0000
8000
ENDCHAR
STARTCHAR semicolon.uni003B
ENCODING 59
SWIDTH 643 0
DWIDTH 6 0
BBX 3 8 0 -2
BITMAP
2000
0000
0000
0000
0000
2000
4000
8000
ENDCHAR
STARTCHAR less.uni003C
ENCODING 60
SWIDTH 643 0
DWIDTH 6 0
BBX 3 5 1 1
BITMAP
2000
4000
8000
4000
2000
ENDCHAR
STARTCHAR equal.uni003D
ENCODING 61
SWIDTH 643 0
DWIDTH 6 0
BBX 5 3 0 2
BITMAP
F800
0000
F800
ENDCHAR
STARTCHAR greater.uni003E
ENCODING 62
SWIDTH 643 0
DWIDTH 6 0
BBX 3 5 1 1
BITMAP
8000
4000
2000
4000
8000
ENDCHAR
STARTCHAR question.uni003F
ENCODING 63
SWIDTH 643 0
DWIDTH 6 0
BBX 5 7 0 0
BITMAP
7000
8800
0800
1000
2000
0000
2000
ENDCHAR
STARTCHAR at.uni0040
ENCODING 64
SWIDTH 643 0
DWIDTH 6 0
BBX 5 7 0 0
BITMAP
7000
8800
B800
A800
B800
8000
7800
ENDCHAR
STARTCHAR A.uni0041
ENCODING 65
SWIDTH 643 0
DWIDTH 6 0
BBX 5 7 0 0
BITMAP
7000
8800
8800
F800
8800
8800
8800
ENDCHAR
STARTCHAR B.uni0042
ENCODING 66
SWIDTH 643 0
DWIDTH 6 0
BBX 5 7 0 0
BITMAP
F000
8800
8800
F000
8800
8800
F000
ENDCHAR
STARTCHAR C.uni0043
ENCODING 67
SWIDTH 643 0
DWIDTH 6 0
BBX 5 7 0 0
BITMAP
7000
8800
8000
8000
8000
8800
7000
ENDCHAR
STARTCHAR D.uni0044
ENCODING 68
SWIDTH 643 0
DWIDTH 6 0
BBX 5 7 0 0
BITMAP
F000
8800
8800
8800
8800
8800
F000
ENDCHAR
STARTCHAR E.uni0045
ENCODING 69
SWIDTH 643 0
DWIDTH 6 0
BBX 5 7 0 0
BITMAP
F800
8000
8000
F000
8000
8000
F800
ENDCHAR
STARTCHAR F.uni0046
ENCODING 70
SWIDTH 643 0
DWIDTH 6 0
BBX 5 7 0 0
BITMAP
F800
8000
8000
F000
8000
8000
8000
ENDCHAR
STARTCHAR G.uni0047
ENCODING 71
SWIDTH 643 0
DWIDTH 6 0
BBX 5 7 0 0
BITMAP
7000
8800
8000
9800
8800
8800
7000
ENDCHAR
STARTCHAR H.uni0048
ENCODING 72
SWIDTH 643 0
DWIDTH 6 0
BBX 5 7 0 0
BITMAP
8800
8800
8800
F800
8800
8800
8800
ENDCHAR
STARTCHAR I.uni0049
ENCODING 73
SWIDTH 643 0
DWIDTH 6 0
BBX 5 7 0 0
BITMAP
F800
2000
2000
2000
2000
2000
F800
ENDCHAR
STARTCHAR J.uni004A
ENCODING 74
SWIDTH 643 0
DWIDTH 6 0
BBX 5 7 0 0
BITMAP
0800
0800
0800
0800
8800
8800
7000
ENDCHAR
STARTCHAR K.uni004B
ENCODING 75
SWIDTH 643 0
DWIDTH 6 0
BBX 5 7 0 0
BITMAP
8800
9000
A000
C000
A000
9000
8800
ENDCHAR
STARTCHAR L.uni004C
ENCODING 76
SWIDTH 643 0
DWIDTH 6 0
BBX 5 7 0 0
BITMAP
8000
8000
8000
8000
8000
8000
F800
ENDCHAR
STARTCHAR M.uni004D
ENCODING 77
SWIDTH 643 0
DWIDTH 6 0
BBX 5 7 0 0
BITMAP
8800
D800
A800
8800
8800
8800
8800
ENDCHAR
STARTCHAR N.uni004E
ENCODING 78
SWIDTH 643 0
DWIDTH 6 0
BBX 5 7 0 0
BITMAP
8800
C800
A800
9800
8800
8800
8800
ENDCHAR
STARTCHAR O.uni004F
ENCODING 79
SWIDTH 643 0
DWIDTH 6 0
BBX 5 7 0 0
BITMAP
7000
8800
8800
8800
8800
8800
7000
ENDCHAR
STARTCHAR P.uni0050
ENCODING 80
SWIDTH 643 0
DWIDTH 6 0
BBX 5 7 0 0
BITMAP
F000
8800
8800
F000
8000
8000
8000
ENDCHAR
STARTCHAR Q.uni0051
ENCODING 81
SWIDTH 643 0
DWIDTH 6 0
BBX 5 9 0 -2
BITMAP
7000
8800
8800
8800
8800
8800
7000
0800
0800
ENDCHAR
STARTCHAR R.uni0052
ENCODING 82
SWIDTH 643 0
DWIDTH 6 0
BBX 5 7 0 0
BITMAP
F000
8800
8800
F000
8800
8800
8800
ENDCHAR
STARTCHAR S.uni0053
ENCODING 83
SWIDTH 643 0
DWIDTH 6 0
BBX 5 7 0 0
BITMAP
7000
8800
8000
7000
0800
8800
7000
ENDCHAR
STARTCHAR T.uni0054
ENCODING 84
SWIDTH 643 0
DWIDTH 6 0
BBX 5 7 0 0
BITMAP
F800
2000
2000
2000
2000
2000
2000
ENDCHAR
STARTCHAR U.uni0055
ENCODING 85
SWIDTH 643 0
DWIDTH 6 0
BBX 5 7 0 0
BITMAP
8800
8800
8800
8800
8800
8800
7000
ENDCHAR
STARTCHAR V.uni0056
ENCODING 86
SWIDTH 643 0
DWIDTH 6 0
BBX 5 7 0 0
BITMAP
8800
8800
8800
8800
8800
5000
2000
ENDCHAR
STARTCHAR W.uni0057
ENCODING 87
SWIDTH 643 0
DWIDTH 6 0
BBX 5 7 0 0
BITMAP
8800
8800
8800
8800
A800
D800
8800
ENDCHAR
STARTCHAR X.uni0058
ENCODING 88
SWIDTH 643 0
DWIDTH 6 0
BBX 5 7 0 0
BITMAP
8800
8800
5000
2000
5000
8800
8800
ENDCHAR
STARTCHAR Y.uni0059
ENCODING 89
SWIDTH 643 0
DWIDTH 6 0
BBX 5 7 0 0
BITMAP
8800
8800
5000
2000
2000
2000
2000
ENDCHAR
STARTCHAR Z.uni005A
ENCODING 90
SWIDTH 643 0
DWIDTH 6 0
BBX 5 7 0 0
BITMAP
F800
0800
1000
2000
4000
8000
F800
ENDCHAR
STARTCHAR bracketleft.uni005B
ENCODING 91
SWIDTH 643 0
DWIDTH 6 0
BBX 3 9 1 -2
BITMAP
E000
8000
8000
8000
8000
8000
8000
8000
E000
ENDCHAR
STARTCHAR backslash.uni005C
ENCODING 92
SWIDTH 643 0
DWIDTH 6 0
BBX 5 5 0 1
BITMAP
8000
4000
2000
1000
0800
ENDCHAR
STARTCHAR bracketright.uni005D
ENCODING 93
SWIDTH 643 0
DWIDTH 6 0
BBX 3 9 1 -2
BITMAP
E000
2000
2000
2000
2000
2000
2000
2000
E000
ENDCHAR
STARTCHAR asciicircum.uni005E
ENCODING 94
SWIDTH 643 0
DWIDTH 6 0
BBX 3 2 1 5
BITMAP
4000
A000
ENDCHAR
STARTCHAR underscore.uni005F
ENCODING 95
SWIDTH 643 0
DWIDTH 6 0
BBX 5 1 0 0
BITMAP
F800
ENDCHAR
STARTCHAR grave.uni0060
ENCODING 96
SWIDTH 643 0
DWIDTH 6 0
BBX 3 3 1 4
BITMAP
8000
4000
2000
ENDCHAR
STARTCHAR a.uni0061
ENCODING 97
SWIDTH 643 0
DWIDTH 6 0
BBX 5 5 0 0
BITMAP
7000
0800
7800
8800
7800
ENDCHAR
STARTCHAR b.uni0062
ENCODING 98
SWIDTH 643 0
DWIDTH 6 0
BBX 5 7 0 0
BITMAP
8000
8000
F000
8800
8800
8800
F000
ENDCHAR
STARTCHAR c.uni0063
ENCODING 99
SWIDTH 643 0
DWIDTH 6 0
BBX 5 5 0 0
BITMAP
7000
8800
8000
8800
7000
ENDCHAR
STARTCHAR d.uni0064
ENCODING 100
SWIDTH 643 0
DWIDTH 6 0
BBX 5 7 0 0
BITMAP
0800
0800
7800
8800
8800
8800
7800
ENDCHAR
STARTCHAR e.uni0065
ENCODING 101
SWIDTH 643 0
DWIDTH 6 0
BBX 5 5 0 0
BITMAP
7000
8800
F800
8000
7800
ENDCHAR
STARTCHAR f.uni0066
ENCODING 102
SWIDTH 643 0
DWIDTH 6 0
BBX 5 7 0 0
BITMAP
3000
4800
E000
4000
4000
4000
4000
ENDCHAR
STARTCHAR g.uni0067
ENCODING 103
SWIDTH 643 0
DWIDTH 6 0
BBX 5 7 0 -2
BITMAP
7000
8800
8800
8800
7800
0800
7000
ENDCHAR
STARTCHAR h.uni0068
ENCODING 104
SWIDTH 643 0
DWIDTH 6 0
BBX 5 7 0 0
BITMAP
8000
8000
F000
8800
8800
8800
8800
ENDCHAR
STARTCHAR i.uni0069
ENCODING 105
SWIDTH 643 0
DWIDTH 6 0
BBX 5 7 0 0
BITMAP
2000
0000
6000
2000
2000
2000
F800
ENDCHAR
STARTCHAR j.uni006A
ENCODING 106
SWIDTH 643 0
DWIDTH 6 0
BBX 3 9 1 -2
BITMAP
2000
0000
6000
2000
2000
2000
2000
2000
C000
ENDCHAR
STARTCHAR k.uni006B
ENCODING 107
SWIDTH 643 0
DWIDTH 6 0
BBX 4 7 0 0
BITMAP
8000
8000
9000
A000
C000
A000
9000
ENDCHAR
STARTCHAR l.uni006C
ENCODING 108
SWIDTH 643 0
DWIDTH 6 0
BBX 5 7 0 0
BITMAP
6000
2000
2000
2000
2000
2000
F800
ENDCHAR
STARTCHAR m.uni006D
ENCODING 109
SWIDTH 643 0
DWIDTH 6 0
BBX 5 5 0 0
BITMAP
5000
A800
A800
A800
A800
ENDCHAR
STARTCHAR n.uni006E
ENCODING 110
SWIDTH 643 0
DWIDTH 6 0
BBX 5 5 0 0
BITMAP
F000
8800
8800
8800
8800
ENDCHAR
STARTCHAR o.uni006F
ENCODING 111
SWIDTH 643 0
DWIDTH 6 0
BBX 5 5 0 0
BITMAP
7000
8800
8800
8800
7000
ENDCHAR
STARTCHAR p.uni0070
ENCODING 112
SWIDTH 643 0
DWIDTH 6 0
BBX 5 7 0 -2
BITMAP
F000
8800
8800
8800
F000
8000
8000
ENDCHAR
STARTCHAR q.uni0071
ENCODING 113
SWIDTH 643 0
DWIDTH 6 0
BBX 5 7 0 -2
BITMAP
7800
8800
8800
8800
7800
0800
0800
ENDCHAR
STARTCHAR r.uni0072
ENCODING 114
SWIDTH 643 0
DWIDTH 6 0
BBX 5 5 0 0
BITMAP
F000
8800
8000
8000
8000
ENDCHAR
STARTCHAR s.uni0073
ENCODING 115
SWIDTH 643 0
DWIDTH 6 0
BBX 5 5 0 0
BITMAP
7000
8000
7000
0800
F000
ENDCHAR
STARTCHAR t.uni0074
ENCODING 116
SWIDTH 643 0
DWIDTH 6 0
BBX 5 7 0 0
BITMAP
2000
2000
F800
2000
2000
2000
2000
ENDCHAR
STARTCHAR u.uni0075
ENCODING 117
SWIDTH 643 0
DWIDTH 6 0
BBX 5 5 0 0
BITMAP
8800
8800
8800
8800
7000
ENDCHAR
STARTCHAR v.uni0076
ENCODING 118
SWIDTH 643 0
DWIDTH 6 0
BBX 5 5 0 0
BITMAP
8800
8800
8800
5000
2000
ENDCHAR
STARTCHAR w.uni0077
ENCODING 119
SWIDTH 643 0
DWIDTH 6 0
BBX 5 5 0 0
BITMAP
A800
A800
A800
A800
5000
ENDCHAR
STARTCHAR x.uni0078
ENCODING 120
SWIDTH 643 0
DWIDTH 6 0
BBX 5 5 0 0
BITMAP
8800
5000
2000
5000
8800
ENDCHAR
STARTCHAR y.uni0079
ENCODING 121
SWIDTH 643 0
DWIDTH 6 0
BBX 5 7 0 -2
BITMAP
8800
8800
8800
8800
7800
0800
7000
ENDCHAR
STARTCHAR z.uni007A
ENCODING 122
SWIDTH 643 0
DWIDTH 6 0
BBX 5 5 0 0
BITMAP
F800
1000
2000
4000
F800
ENDCHAR
STARTCHAR braceleft.uni007B
ENCODING 123
SWIDTH 643 0
DWIDTH 6 0
BBX 3 9 1 -2
BITMAP
2000
4000
4000
4000
8000
4000
4000
4000
2000
ENDCHAR
STARTCHAR bar.uni007C
ENCODING 124
SWIDTH 643 0
DWIDTH 6 0
BBX 1 9 2 -2
BITMAP
8000
8000
8000
8000
8000
8000
8000
8000
8000
ENDCHAR
STARTCHAR braceright.uni007D
ENCODING 125
SWIDTH 643 0
DWIDTH 6 0
BBX 3 9 1 -2
BITMAP
8000
4000
4000
4000
2000
4000
4000
4000
8000
ENDCHAR
STARTCHAR asciitilde.uni007E
ENCODING 126
SWIDTH 643 0
DWIDTH 6 0
BBX 5 3 0 4
BITMAP
4000
A800
1000
ENDCHAR
STARTCHAR logicalnot.uni00AC
ENCODING 172
SWIDTH 643 0
DWIDTH 6 0
BBX 5 3 0 4
BITMAP
F800
0800
0800
ENDCHAR
STARTCHAR multiply.uni00D7
ENCODING 215
SWIDTH 643 0
DWIDTH 6 0
BBX 3 3 1 2
BITMAP
A000
4000
A000
ENDCHAR
STARTCHAR space.uni0020
ENCODING 32
SWIDTH 643 0
DWIDTH 6 0
BBX 0 0 0 0
BITMAP
ENDCHAR
STARTCHAR quotedblleft.uni201C
ENCODING 8220
SWIDTH 643 0
DWIDTH 6 0
BBX 5 3 0 4
BITMAP
A000
5000
2800
ENDCHAR
STARTCHAR quotedblright.uni201D
ENCODING 8221
SWIDTH 643 0
DWIDTH 6 0
BBX 5 3 0 4
BITMAP
2800
5000
A000
ENDCHAR
STARTCHAR Gamma.uni0393
ENCODING 915
SWIDTH 300 0
DWIDTH 6 0
BBX 5 7 0 0
BITMAP
F800
8000
8000
8000
8000
8000
8000
ENDCHAR
STARTCHAR uni0394.uni0394
ENCODING 916
SWIDTH 1000 0
DWIDTH 12 0
BBX 7 7 2 0
BITMAP
1000
1000
2800
2800
4400
4400
FE00
ENDCHAR
STARTCHAR Lambda.uni039B
ENCODING 923
SWIDTH 1000 0
DWIDTH 12 0
BBX 7 7 2 0
BITMAP
1000
1000
2800
2800
4400
4400
C600
ENDCHAR
STARTCHAR Pi.uni03A0
ENCODING 928
SWIDTH 300 0
DWIDTH 6 0
BBX 5 7 0 0
BITMAP
F800
8800
8800
8800
8800
8800
8800
ENDCHAR
STARTCHAR Sigma.uni03A3
ENCODING 931
SWIDTH 300 0
DWIDTH 6 0
BBX 5 7 0 0
BITMAP
F800
8000
4000
2000
4000
8000
F800
ENDCHAR
STARTCHAR alpha.uni03B1
ENCODING 945
SWIDTH 300 0
DWIDTH 6 0
BBX 5 5 0 0
BITMAP
6800
9000
9000
9000
6800
ENDCHAR
STARTCHAR beta.uni03B2
ENCODING 946
SWIDTH 300 0
DWIDTH 6 0
BBX 5 9 0 -2
BITMAP
F000
8800
8800
F000
8800
8800
F000
8000
8000
ENDCHAR
STARTCHAR gamma.uni03B3
ENCODING 947
SWIDTH 300 0
DWIDTH 6 0
BBX 5 7 0 -2
BITMAP
8800
8800
8800
5000
2000
4000
8000
ENDCHAR
STARTCHAR delta.uni03B4
ENCODING 948
SWIDTH 300 0
DWIDTH 6 0
BBX 5 7 0 0
BITMAP
7800
8000
7000
8800
8800
8800
7000
ENDCHAR
STARTCHAR epsilon.uni03B5
ENCODING 949
SWIDTH 300 0
DWIDTH 6 0
BBX 5 5 0 0
BITMAP
7800
8000
7800
8000
7800
ENDCHAR
STARTCHAR theta.uni03B8
ENCODING 952
SWIDTH 300 0
DWIDTH 6 0
BBX 5 7 0 0
BITMAP
7000
8800
8800
F800
8800
8800
7000
ENDCHAR
STARTCHAR lambda.uni03BB
ENCODING 955
SWIDTH 300 0
DWIDTH 6 0
BBX 5 7 0 0
BITMAP
8000
8000
4000
2000
5000
8800
8800
ENDCHAR
STARTCHAR uni03BC.uni03BC
ENCODING 956
SWIDTH 300 0
DWIDTH 6 0
BBX 5 7 0 -2
BITMAP
8800
8800
8800
8800
F000
8000
8000
ENDCHAR
STARTCHAR nu.uni03BD
ENCODING 957
SWIDTH 300 0
DWIDTH 6 0
BBX 5 5 0 0
BITMAP
8800
8800
8800
9000
E000
ENDCHAR
STARTCHAR pi.uni03C0
ENCODING 960
SWIDTH 300 0
DWIDTH 6 0
BBX 5 5 0 0
BITMAP
F800
5000
5000
5000
5000
ENDCHAR
STARTCHAR sigma.uni03C3
ENCODING 963
SWIDTH 300 0
DWIDTH 6 0
BBX 5 5 0 0
BITMAP
7800
9000
9000
9000
6000
ENDCHAR
STARTCHAR tau.uni03C4
ENCODING 964
SWIDTH 300 0
DWIDTH 6 0
BBX 5 5 0 0
BITMAP
F800
2000
2000
2000
2000
ENDCHAR
STARTCHAR phi.uni03C6
ENCODING 966
SWIDTH 300 0
DWIDTH 6 0
BBX 5 7 0 0
BITMAP
1000
A800
A800
7000
2000
2000
2000
ENDCHAR
STARTCHAR chi.uni03C7
ENCODING 967
SWIDTH 300 0
DWIDTH 6 0
BBX 5 7 0 0
BITMAP
0800
8800
5000
2000
5000
8800
8000
ENDCHAR
STARTCHAR psi.uni03C8
ENCODING 968
SWIDTH 300 0
DWIDTH 6 0
BBX 5 7 0 0
BITMAP
A800
A800
A800
7000
2000
2000
2000
ENDCHAR
STARTCHAR uni2102.uni2102
ENCODING 8450
SWIDTH 300 0
DWIDTH 6 0
BBX 5 7 0 0
BITMAP
7000
C800
C000
C000
C000
C800
7000
ENDCHAR
STARTCHAR uni2115.uni2115
ENCODING 8469
SWIDTH 300 0
DWIDTH 6 0
BBX 5 7 0 0
BITMAP
8800
C800
E800
B800
9800
8800
8800
ENDCHAR
STARTCHAR uni211A.uni211A
ENCODING 8474
SWIDTH 300 0
DWIDTH 6 0
BBX 5 9 0 -2
BITMAP
7000
C800
C800
C800
C800
C800
7000
0800
0800
ENDCHAR
STARTCHAR uni211D.uni211D
ENCODING 8477
SWIDTH 300 0
DWIDTH 6 0
BBX 5 7 0 0
BITMAP
F000
C800
C800
F000
C800
C800
C800
ENDCHAR
STARTCHAR uni2124.uni2124
ENCODING 8484
SWIDTH 300 0
DWIDTH 6 0
BBX 5 7 0 0
BITMAP
F800
1800
3800
7000
E000
C000
F800
ENDCHAR
STARTCHAR arrowleft.uni2190
ENCODING 8592
SWIDTH 643 0
DWIDTH 6 0
BBX 5 3 0 2
BITMAP
4000
B800
4000
ENDCHAR
STARTCHAR arrowright.uni2192
ENCODING 8594
SWIDTH 643 0
DWIDTH 6 0
BBX 5 3 0 2
BITMAP
1000
E800
1000
ENDCHAR
STARTCHAR arrowboth.uni2194
ENCODING 8596
SWIDTH 643 0
DWIDTH 6 0
BBX 5 3 0 2
BITMAP
5000
A800
5000
ENDCHAR
STARTCHAR universal.uni2200
ENCODING 8704
SWIDTH 1000 0
DWIDTH 12 0
BBX 7 7 2 0
BITMAP
C600
4400
4400
3800
2800
1000
1000
ENDCHAR
STARTCHAR partialdiff.uni2202
ENCODING 8706
SWIDTH 300 0
DWIDTH 6 0
BBX 5 7 0 0
BITMAP
6000
1000
0800
7800
8800
8800
7000
ENDCHAR
STARTCHAR existential.uni2203
ENCODING 8707
SWIDTH 300 0
DWIDTH 6 0
BBX 5 7 0 0
BITMAP
F800
0800
0800
7800
0800
0800
F800
ENDCHAR
STARTCHAR emptyset.uni2205
ENCODING 8709
SWIDTH 1286 0
DWIDTH 12 0
BBX 7 7 2 0
BITMAP
3A00
4400
8A00
9200
A200
4400
B800
ENDCHAR
STARTCHAR element.uni2208
ENCODING 8712
SWIDTH 300 0
DWIDTH 6 0
BBX 5 5 0 1
BITMAP
7800
8000
F800
8000
7800
ENDCHAR
STARTCHAR notelement.uni2209
ENCODING 8713
SWIDTH 300 0
DWIDTH 6 0
BBX 5 7 0 0
BITMAP
2000
7800
A000
F800
A000
7800
2000
ENDCHAR
STARTCHAR uni2218.uni2218
ENCODING 8728
SWIDTH 300 0
DWIDTH 6 0
BBX 3 3 1 2
BITMAP
4000
A000
4000
ENDCHAR
STARTCHAR infinity.uni221E
ENCODING 8734
SWIDTH 300 0
DWIDTH 6 0
BBX 5 3 0 2
BITMAP
5000
A800
5000
ENDCHAR
STARTCHAR logicaland.uni2227
ENCODING 8743
SWIDTH 300 0
DWIDTH 6 0
BBX 5 3 0 2
BITMAP
2000
5000
8800
ENDCHAR
STARTCHAR logicalor.uni2228
ENCODING 8744
SWIDTH 300 0
DWIDTH 6 0
BBX 5 3 0 2
BITMAP
8800
5000
2000
ENDCHAR
STARTCHAR intersection.uni2229
ENCODING 8745
SWIDTH 300 0
DWIDTH 6 0
BBX 5 7 0 0
BITMAP
7000
8800
8800
8800
8800
8800
8800
ENDCHAR
STARTCHAR union.uni222A
ENCODING 8746
SWIDTH 300 0
DWIDTH 6 0
BBX 5 7 0 0
BITMAP
8800
8800
8800
8800
8800
8800
7000
ENDCHAR
STARTCHAR notequal.uni2260
ENCODING 8800
SWIDTH 300 0
DWIDTH 6 0
BBX 5 5 0 1
BITMAP
2000
F800
2000
F800
2000
ENDCHAR
STARTCHAR equivalence.uni2261
ENCODING 8801
SWIDTH 300 0
DWIDTH 6 0
BBX 5 5 0 1
BITMAP
F800
0000
F800
0000
F800
ENDCHAR
STARTCHAR lessequal.uni2264
ENCODING 8804
SWIDTH 300 0
DWIDTH 6 0
BBX 3 7 1 -1
BITMAP
2000
4000
8000
4000
2000
0000
E000
ENDCHAR
STARTCHAR greaterequal.uni2265
ENCODING 8805
SWIDTH 300 0
DWIDTH 6 0
BBX 3 7 1 -1
BITMAP
8000
4000
2000
4000
8000
0000
E000
ENDCHAR
STARTCHAR propersubset.uni2282
ENCODING 8834
SWIDTH 300 0
DWIDTH 6 0
BBX 5 7 0 0
BITMAP
3800
4000
8000
8000
8000
4000
3800
ENDCHAR
STARTCHAR reflexsubset.uni2286
ENCODING 8838
SWIDTH 300 0
DWIDTH 6 0
BBX 5 9 0 -2
BITMAP
3800
4000
8000
8000
8000
4000
3800
0000
7800
ENDCHAR
STARTCHAR uni22C2.uni22C2
ENCODING 8898
SWIDTH 300 0
DWIDTH 6 0
BBX 5 9 0 -2
BITMAP
7000
8800
8800
8800
8800
8800
8800
8800
8800
ENDCHAR
STARTCHAR uni22C3.uni22C3
ENCODING 8899
SWIDTH 300 0
DWIDTH 6 0
BBX 5 9 0 -2
BITMAP
8800
8800
8800
8800
8800
8800
8800
8800
7000
ENDCHAR
STARTCHAR uni27E8.uni27E8
ENCODING 10216
SWIDTH 500 0
DWIDTH 6 0
BBX 5 9 0 -2
BITMAP
0800
1000
2000
4000
8000
4000
2000
1000
0800
ENDCHAR
STARTCHAR uni27E9.uni27E9
ENCODING 10217
SWIDTH 500 0
DWIDTH 6 0
BBX 5 9 0 -2
BITMAP
8000
4000
2000
1000
0800
1000
2000
4000
8000
ENDCHAR
STARTCHAR periodcentered.uni00B7
ENCODING 183
SWIDTH 643 0
DWIDTH 6 0
BBX 1 1 2 3
BITMAP
8000
ENDCHAR
ENDFONT
