STARTFONT 2.1
FONT -Patrick J. Thomas-mono_size_7_design_4-Normal-R-Normal-Regular-15-150-96-96-P-100--
SIZE 15 96 96
FONTBOUNDINGBOX 17 19 0 -4
STARTPROPERTIES 32
FAMILY_NAME "mono_size_7_design_4"
DEFAULT_CHAR -1
FOUNDRY "Patrick J. Thomas"
COPYRIGHT "Copyright (c) 2025, Patrick J. Thomas. All rights reserved."
CODEPAGE "MS Windows 1252 Western (ANSI)"
ENC_MODE 2
ENC_ID 1
DESIGNER "Patrick J. Thomas"
CREATION_YEAR 2025
WEIGHT_NAME "Normal"
SLANT "R"
SETWIDTH_NAME "Normal"
ADD_STYLE_NAME "Regular"
SPACING "P"
WEIGHT 400
FACE_NAME "mono_size_7_design_4"
HI_VERSION 1
MENU_NAME "mono_size_7_design_4"
FONT_NAME "mono_size_7_design_4"
CP_RANGE_1 65535
CP_RANGE_2 65535
FONTNAME_REGISTRY "-"
BREAK_CHAR 32
PIXEL_SIZE 20
POINT_SIZE 150
FONT_ASCENT 15
FONT_DESCENT 5
RESOLUTION_X 96
RESOLUTION_Y 96
AVERAGE_WIDTH 100
X_HEIGHT 9
CAP_HEIGHT 15
ENDPROPERTIES
CHARS 150
STARTCHAR space.uni0020
ENCODING 32
SWIDTH 500 0
DWIDTH 10 0
BBX 0 0 0 0
BITMAP
ENDCHAR
STARTCHAR exclam.uni0021
ENCODING 33
SWIDTH 500 0
DWIDTH 10 0
BBX 1 15 4 0
BITMAP
8000
8000
8000
8000
8000
8000
8000
8000
8000
8000
8000
0000
0000
0000
8000
ENDCHAR
STARTCHAR quotedbl.uni0022
ENCODING 34
SWIDTH 500 0
DWIDTH 10 0
BBX 3 3 3 12
BITMAP
A000
A000
A000
ENDCHAR
STARTCHAR numbersign.uni0023
ENCODING 35
SWIDTH 500 0
DWIDTH 10 0
BBX 9 9 0 3
BITMAP
2200
2200
FF80
2200
2200
2200
FF80
2200
2200
ENDCHAR
STARTCHAR dollar.uni0024
ENCODING 36
SWIDTH 500 0
DWIDTH 10 0
BBX 7 15 1 0
BITMAP
1000
1000
3800
5400
9200
9000
9000
7C00
1200
1200
9200
5400
3800
1000
1000
ENDCHAR
STARTCHAR percent.uni0025
ENCODING 37
SWIDTH 500 0
DWIDTH 10 0
BBX 9 9 0 3
BITMAP
4080
A100
4200
0400
0800
1000
2100
4280
8100
ENDCHAR
STARTCHAR ampersand.uni0026
ENCODING 38
SWIDTH 500 0
DWIDTH 10 0
BBX 9 15 0 0
BITMAP
3000
4800
8400
8400
8400
8800
5000
2000
5000
8800
8400
8280
8100
8280
7C00
ENDCHAR
STARTCHAR quotesingle.uni0027
ENCODING 39
SWIDTH 500 0
DWIDTH 10 0
BBX 1 3 4 12
BITMAP
8000
8000
8000
ENDCHAR
STARTCHAR parenleft.uni0028
ENCODING 40
SWIDTH 500 0
DWIDTH 10 0
BBX 5 19 2 -4
BITMAP
0800
1000
2000
4000
8000
8000
8000
8000
8000
8000
8000
8000
8000
8000
8000
4000
2000
1000
0800
ENDCHAR
STARTCHAR parenright.uni0029
ENCODING 41
SWIDTH 500 0
DWIDTH 10 0
BBX 5 19 2 -4
BITMAP
8000
4000
2000
1000
0800
0800
0800
0800
0800
0800
0800
0800
0800
0800
0800
1000
2000
4000
8000
ENDCHAR
STARTCHAR asterisk.uni002A
ENCODING 42
SWIDTH 500 0
DWIDTH 10 0
BBX 9 9 0 3
BITMAP
0800
8880
4900
2A00
1C00
2A00
4900
8880
0800
ENDCHAR
STARTCHAR plus.uni002B
ENCODING 43
SWIDTH 500 0
DWIDTH 10 0
BBX 9 9 0 3
BITMAP
0800
0800
0800
0800
FF80
0800
0800
0800
0800
ENDCHAR
STARTCHAR comma.uni002C
ENCODING 44
SWIDTH 500 0
DWIDTH 10 0
BBX 3 3 3 -2
BITMAP
2000
4000
8000
ENDCHAR
STARTCHAR hyphen.uni002D
ENCODING 45
SWIDTH 500 0
DWIDTH 10 0
BBX 9 1 0 7
BITMAP
FF80
ENDCHAR
STARTCHAR period.uni002E
ENCODING 46
SWIDTH 500 0
DWIDTH 10 0
BBX 1 1 4 0
BITMAP
8000
ENDCHAR
STARTCHAR slash.uni002F
ENCODING 47
SWIDTH 500 0
DWIDTH 10 0
BBX 9 9 0 3
BITMAP
0080
0100
0200
0400
0800
1000
2000
4000
8000
ENDCHAR
STARTCHAR zero.uni0030
ENCODING 48
SWIDTH 500 0
DWIDTH 10 0
BBX 9 15 0 0
BITMAP
3E00
4100
8080
8080
8180
8280
8480
8880
9080
A080
C080
8080
8080
4100
3E00
ENDCHAR
STARTCHAR one.uni0031
ENCODING 49
SWIDTH 500 0
DWIDTH 10 0
BBX 9 15 0 0
BITMAP
0800
1800
2800
4800
8800
0800
0800
0800
0800
0800
0800
0800
0800
0800
FF80
ENDCHAR
STARTCHAR two.uni0032
ENCODING 50
SWIDTH 500 0
DWIDTH 10 0
BBX 9 15 0 0
BITMAP
3E00
4100
8080
0080
0080
0100
0200
0400
0800
1000
2000
4000
8000
8000
FF80
ENDCHAR
STARTCHAR three.uni0033
ENCODING 51
SWIDTH 500 0
DWIDTH 10 0
BBX 9 15 0 0
BITMAP
3E00
4100
8080
0080
0080
0080
0100
0E00
0100
0080
0080
0080
8080
4100
3E00
ENDCHAR
STARTCHAR four.uni0034
ENCODING 52
SWIDTH 500 0
DWIDTH 10 0
BBX 9 15 0 0
BITMAP
0200
0600
0A00
1200
2200
4200
8200
FF80
0200
0200
0200
0200
0200
0200
0200
ENDCHAR
STARTCHAR five.uni0035
ENCODING 53
SWIDTH 500 0
DWIDTH 10 0
BBX 9 15 0 0
BITMAP
FF80
8000
8000
8000
8000
8000
8000
FE00
0100
0080
0080
0080
8080
4100
3E00
ENDCHAR
STARTCHAR six.uni0036
ENCODING 54
SWIDTH 500 0
DWIDTH 10 0
BBX 9 15 0 0
BITMAP
3E00
4100
8080
8000
8000
8000
8000
FE00
8100
8080
8080
8080
8080
4100
3E00
ENDCHAR
STARTCHAR seven.uni0037
ENCODING 55
SWIDTH 500 0
DWIDTH 10 0
BBX 9 15 0 0
BITMAP
FF80
0080
0080
0080
0100
0200
0400
0800
0800
0800
0800
0800
0800
0800
0800
ENDCHAR
STARTCHAR eight.uni0038
ENCODING 56
SWIDTH 500 0
DWIDTH 10 0
BBX 9 15 0 0
BITMAP
3E00
4100
8080
8080
8080
8080
4100
3E00
4100
8080
8080
8080
8080
4100
3E00
ENDCHAR
STARTCHAR nine.uni0039
ENCODING 57
SWIDTH 500 0
DWIDTH 10 0
BBX 9 15 0 0
BITMAP
3E00
4100
8080
8080
8080
8080
4080
3F80
0080
0080
0080
0080
8080
4100
3E00
ENDCHAR
STARTCHAR colon.uni003A
ENCODING 58
SWIDTH 500 0
DWIDTH 10 0
BBX 1 9 4 3
BITMAP
8000
0000
0000
0000
0000
0000
0000
0000
8000
ENDCHAR
STARTCHAR semicolon.uni003B
ENCODING 59
SWIDTH 500 0
DWIDTH 10 0
BBX 3 14 3 -2
BITMAP
2000
0000
0000
0000
0000
0000
0000
0000
0000
0000
0000
2000
4000
8000
ENDCHAR
STARTCHAR less.uni003C
ENCODING 60
SWIDTH 500 0
DWIDTH 10 0
BBX 5 9 2 3
BITMAP
0800
1000
2000
4000
8000
4000
2000
1000
0800
ENDCHAR
STARTCHAR equal.uni003D
ENCODING 61
SWIDTH 500 0
DWIDTH 10 0
BBX 9 5 0 5
BITMAP
FF80
0000
0000
0000
FF80
ENDCHAR
STARTCHAR greater.uni003E
ENCODING 62
SWIDTH 500 0
DWIDTH 10 0
BBX 5 9 2 3
BITMAP
8000
4000
2000
1000
0800
1000
2000
4000
8000
ENDCHAR
STARTCHAR question.uni003F
ENCODING 63
SWIDTH 500 0
DWIDTH 10 0
BBX 9 15 0 0
BITMAP
3E00
4100
8080
0080
0080
0100
0200
0400
0800
0800
0800
0000
0000
0000
0800
ENDCHAR
STARTCHAR at.uni0040
ENCODING 64
SWIDTH 500 0
DWIDTH 10 0
BBX 9 15 0 0
BITMAP
3E00
4100
8080
8080
8780
8880
8880
8880
8880
8880
8780
8000
8000
4000
3F00
ENDCHAR
STARTCHAR A.uni0041
ENCODING 65
SWIDTH 500 0
DWIDTH 10 0
BBX 9 15 0 0
BITMAP
3E00
4100
8080
8080
8080
8080
8080
FF80
8080
8080
8080
8080
8080
8080
8080
ENDCHAR
STARTCHAR B.uni0042
ENCODING 66
SWIDTH 500 0
DWIDTH 10 0
BBX 9 15 0 0
BITMAP
FE00
8100
8080
8080
8080
8080
8100
FE00
8100
8080
8080
8080
8080
8100
FE00
ENDCHAR
STARTCHAR C.uni0043
ENCODING 67
SWIDTH 500 0
DWIDTH 10 0
BBX 9 15 0 0
BITMAP
3E00
4100
8080
8000
8000
8000
8000
8000
8000
8000
8000
8000
8080
4100
3E00
ENDCHAR
STARTCHAR D.uni0044
ENCODING 68
SWIDTH 500 0
DWIDTH 10 0
BBX 9 15 0 0
BITMAP
FE00
8100
8080
8080
8080
8080
8080
8080
8080
8080
8080
8080
8080
8100
FE00
ENDCHAR
STARTCHAR E.uni0045
ENCODING 69
SWIDTH 500 0
DWIDTH 10 0
BBX 9 15 0 0
BITMAP
FF80
8000
8000
8000
8000
8000
8000
FF80
8000
8000
8000
8000
8000
8000
FF80
ENDCHAR
STARTCHAR F.uni0046
ENCODING 70
SWIDTH 500 0
DWIDTH 10 0
BBX 9 15 0 0
BITMAP
FF80
8000
8000
8000
8000
8000
8000
FF80
8000
8000
8000
8000
8000
8000
8000
ENDCHAR
STARTCHAR G.uni0047
ENCODING 71
SWIDTH 500 0
DWIDTH 10 0
BBX 9 15 0 0
BITMAP
3E00
4100
8080
8000
8000
8000
8000
8380
8080
8080
8080
8080
8080
4100
3E00
ENDCHAR
STARTCHAR H.uni0048
ENCODING 72
SWIDTH 500 0
DWIDTH 10 0
BBX 9 15 0 0
BITMAP
8080
8080
8080
8080
8080
8080
8080
FF80
8080
8080
8080
8080
8080
8080
8080
ENDCHAR
STARTCHAR I.uni0049
ENCODING 73
SWIDTH 500 0
DWIDTH 10 0
BBX 9 15 0 0
BITMAP
FF80
0800
0800
0800
0800
0800
0800
0800
0800
0800
0800
0800
0800
0800
FF80
ENDCHAR
STARTCHAR J.uni004A
ENCODING 74
SWIDTH 500 0
DWIDTH 10 0
BBX 9 15 0 0
BITMAP
0080
0080
0080
0080
0080
0080
0080
0080
0080
0080
0080
0080
8080
4100
3E00
ENDCHAR
STARTCHAR K.uni004B
ENCODING 75
SWIDTH 500 0
DWIDTH 10 0
BBX 9 15 0 0
BITMAP
8080
8100
8200
8400
8800
9000
A000
C000
A000
9000
8800
8400
8200
8100
8080
ENDCHAR
STARTCHAR L.uni004C
ENCODING 76
SWIDTH 500 0
DWIDTH 10 0
BBX 9 15 0 0
BITMAP
8000
8000
8000
8000
8000
8000
8000
8000
8000
8000
8000
8000
8000
8000
FF80
ENDCHAR
STARTCHAR M.uni004D
ENCODING 77
SWIDTH 500 0
DWIDTH 10 0
BBX 9 15 0 0
BITMAP
8080
C180
A280
9480
8880
8080
8080
8080
8080
8080
8080
8080
8080
8080
8080
ENDCHAR
STARTCHAR N.uni004E
ENCODING 78
SWIDTH 500 0
DWIDTH 10 0
BBX 9 15 0 0
BITMAP
8080
C080
A080
9080
8880
8480
8280
8180
8080
8080
8080
8080
8080
8080
8080
ENDCHAR
STARTCHAR O.uni004F
ENCODING 79
SWIDTH 500 0
DWIDTH 10 0
BBX 9 15 0 0
BITMAP
3E00
4100
8080
8080
8080
8080
8080
8080
8080
8080
8080
8080
8080
4100
3E00
ENDCHAR
STARTCHAR P.uni0050
ENCODING 80
SWIDTH 500 0
DWIDTH 10 0
BBX 9 15 0 0
BITMAP
FE00
8100
8080
8080
8080
8080
8100
FE00
8000
8000
8000
8000
8000
8000
8000
ENDCHAR
STARTCHAR Q.uni0051
ENCODING 81
SWIDTH 500 0
DWIDTH 10 0
BBX 9 15 0 0
BITMAP
3E00
4100
8080
8080
8080
8080
8080
8080
8080
8080
8080
8080
8280
4100
3E80
ENDCHAR
STARTCHAR R.uni0052
ENCODING 82
SWIDTH 500 0
DWIDTH 10 0
BBX 9 15 0 0
BITMAP
FE00
8100
8080
8080
8080
8080
8100
FE00
8100
8080
8080
8080
8080
8080
8080
ENDCHAR
STARTCHAR S.uni0053
ENCODING 83
SWIDTH 500 0
DWIDTH 10 0
BBX 9 15 0 0
BITMAP
3E00
4100
8080
8000
8000
8000
4000
3E00
0100
0080
0080
0080
8080
4100
3E00
ENDCHAR
STARTCHAR T.uni0054
ENCODING 84
SWIDTH 500 0
DWIDTH 10 0
BBX 9 15 0 0
BITMAP
FF80
0800
0800
0800
0800
0800
0800
0800
0800
0800
0800
0800
0800
0800
0800
ENDCHAR
STARTCHAR U.uni0055
ENCODING 85
SWIDTH 500 0
DWIDTH 10 0
BBX 9 15 0 0
BITMAP
8080
8080
8080
8080
8080
8080
8080
8080
8080
8080
8080
8080
8080
4100
3E00
ENDCHAR
STARTCHAR V.uni0056
ENCODING 86
SWIDTH 500 0
DWIDTH 10 0
BBX 9 15 0 0
BITMAP
8080
8080
8080
8080
8080
8080
8080
8080
8080
8080
8080
4100
2200
1400
0800
ENDCHAR
STARTCHAR W.uni0057
ENCODING 87
SWIDTH 500 0
DWIDTH 10 0
BBX 9 15 0 0
BITMAP
8080
8080
8080
8080
8080
8080
8080
8080
8080
8080
8880
9480
A280
C180
8080
ENDCHAR
STARTCHAR X.uni0058
ENCODING 88
SWIDTH 500 0
DWIDTH 10 0
BBX 9 15 0 0
BITMAP
8080
8080
8080
8080
4100
2200
1400
0800
1400
2200
4100
8080
8080
8080
8080
ENDCHAR
STARTCHAR Y.uni0059
ENCODING 89
SWIDTH 500 0
DWIDTH 10 0
BBX 9 15 0 0
BITMAP
8080
8080
8080
8080
4100
2200
1400
0800
0800
0800
0800
0800
0800
0800
0800
ENDCHAR
STARTCHAR Z.uni005A
ENCODING 90
SWIDTH 500 0
DWIDTH 10 0
BBX 9 15 0 0
BITMAP
FF80
0080
0080
0080
0100
0200
0400
0800
1000
2000
4000
8000
8000
8000
FF80
ENDCHAR
STARTCHAR bracketleft.uni005B
ENCODING 91
SWIDTH 500 0
DWIDTH 10 0
BBX 5 19 2 -4
BITMAP
F800
8000
8000
8000
8000
8000
8000
8000
8000
8000
8000
8000
8000
8000
8000
8000
8000
8000
F800
ENDCHAR
STARTCHAR backslash.uni005C
ENCODING 92
SWIDTH 500 0
DWIDTH 10 0
BBX 9 9 0 3
BITMAP
8000
4000
2000
1000
0800
0400
0200
0100
0080
ENDCHAR
STARTCHAR bracketright.uni005D
ENCODING 93
SWIDTH 500 0
DWIDTH 10 0
BBX 5 19 2 -4
BITMAP
F800
0800
0800
0800
0800
0800
0800
0800
0800
0800
0800
0800
0800
0800
0800
0800
0800
0800
F800
ENDCHAR
STARTCHAR asciicircum.uni005E
ENCODING 94
SWIDTH 500 0
DWIDTH 10 0
BBX 5 3 2 12
BITMAP
2000
5000
8800
ENDCHAR
STARTCHAR underscore.uni005F
ENCODING 95
SWIDTH 500 0
DWIDTH 10 0
BBX 9 1 0 0
BITMAP
FF80
ENDCHAR
STARTCHAR grave.uni0060
ENCODING 96
SWIDTH 500 0
DWIDTH 10 0
BBX 3 3 3 12
BITMAP
8000
4000
2000
ENDCHAR
STARTCHAR a.uni0061
ENCODING 97
SWIDTH 500 0
DWIDTH 10 0
BBX 9 9 0 0
BITMAP
3E00
0100
0080
3F80
4080
8080
8080
4080
3F80
ENDCHAR
STARTCHAR b.uni0062
ENCODING 98
SWIDTH 500 0
DWIDTH 10 0
BBX 9 15 0 0
BITMAP
8000
8000
8000
8000
8000
8000
FE00
8100
8080
8080
8080
8080
8080
8100
FE00
ENDCHAR
STARTCHAR c.uni0063
ENCODING 99
SWIDTH 500 0
DWIDTH 10 0
BBX 9 9 0 0
BITMAP
3E00
4100
8080
8000
8000
8000
8080
4100
3E00
ENDCHAR
STARTCHAR d.uni0064
ENCODING 100
SWIDTH 500 0
DWIDTH 10 0
BBX 9 15 0 0
BITMAP
0080
0080
0080
0080
0080
0080
3F80
4080
8080
8080
8080
8080
8080
4080
3F80
ENDCHAR
STARTCHAR e.uni0065
ENCODING 101
SWIDTH 500 0
DWIDTH 10 0
BBX 9 9 0 0
BITMAP
3E00
4100
8080
8080
FF80
8000
8000
4000
3F00
ENDCHAR
STARTCHAR f.uni0066
ENCODING 102
SWIDTH 500 0
DWIDTH 10 0
BBX 9 15 0 0
BITMAP
0780
0800
1000
1000
1000
1000
FE00
1000
1000
1000
1000
1000
1000
1000
1000
ENDCHAR
STARTCHAR g.uni0067
ENCODING 103
SWIDTH 500 0
DWIDTH 10 0
BBX 9 13 0 -4
BITMAP
3F80
4080
8080
8080
8080
8080
8080
4080
3F80
0080
0100
0200
7C00
ENDCHAR
STARTCHAR h.uni0068
ENCODING 104
SWIDTH 500 0
DWIDTH 10 0
BBX 9 15 0 0
BITMAP
8000
8000
8000
8000
8000
8000
FE00
8100
8080
8080
8080
8080
8080
8080
8080
ENDCHAR
STARTCHAR i.uni0069
ENCODING 105
SWIDTH 500 0
DWIDTH 10 0
BBX 9 13 0 0
BITMAP
0800
0000
0000
0000
7800
0800
0800
0800
0800
0800
0800
0800
FF80
ENDCHAR
STARTCHAR j.uni006A
ENCODING 106
SWIDTH 500 0
DWIDTH 10 0
BBX 7 17 1 -4
BITMAP
0200
0000
0000
0000
3E00
0200
0200
0200
0200
0200
0200
0200
0200
0200
0400
0800
F000
ENDCHAR
STARTCHAR k.uni006B
ENCODING 107
SWIDTH 500 0
DWIDTH 10 0
BBX 7 15 1 0
BITMAP
8000
8000
8000
8000
8000
8000
8800
9000
A000
C000
A000
9000
8800
8400
8200
ENDCHAR
STARTCHAR l.uni006C
ENCODING 108
SWIDTH 500 0
DWIDTH 10 0
BBX 9 15 0 0
BITMAP
F800
0800
0800
0800
0800
0800
0800
0800
0800
0800
0800
0800
0800
0800
FF80
ENDCHAR
STARTCHAR m.uni006D
ENCODING 109
SWIDTH 500 0
DWIDTH 10 0
BBX 9 9 0 0
BITMAP
2200
5500
8880
8880
8880
8880
8880
8880
8880
ENDCHAR
STARTCHAR n.uni006E
ENCODING 110
SWIDTH 500 0
DWIDTH 10 0
BBX 9 9 0 0
BITMAP
FE00
8100
8080
8080
8080
8080
8080
8080
8080
ENDCHAR
STARTCHAR o.uni006F
ENCODING 111
SWIDTH 500 0
DWIDTH 10 0
BBX 9 9 0 0
BITMAP
3E00
4100
8080
8080
8080
8080
8080
4100
3E00
ENDCHAR
STARTCHAR p.uni0070
ENCODING 112
SWIDTH 500 0
DWIDTH 10 0
BBX 9 13 0 -4
BITMAP
FE00
8100
8080
8080
8080
8080
8080
8100
FE00
8000
8000
8000
8000
ENDCHAR
STARTCHAR q.uni0071
ENCODING 113
SWIDTH 500 0
DWIDTH 10 0
BBX 9 13 0 -4
BITMAP
3F80
4080
8080
8080
8080
8080
8080
4080
3F80
0080
0080
0080
0080
ENDCHAR
STARTCHAR r.uni0072
ENCODING 114
SWIDTH 500 0
DWIDTH 10 0
BBX 9 9 0 0
BITMAP
FE00
8100
8080
8000
8000
8000
8000
8000
8000
ENDCHAR
STARTCHAR s.uni0073
ENCODING 115
SWIDTH 500 0
DWIDTH 10 0
BBX 9 9 0 0
BITMAP
3F00
4000
8000
4000
3E00
0100
0080
0100
7E00
ENDCHAR
STARTCHAR t.uni0074
ENCODING 116
SWIDTH 500 0
DWIDTH 10 0
BBX 9 15 0 0
BITMAP
0800
0800
0800
0800
0800
0800
FF80
0800
0800
0800
0800
0800
0800
0800
0800
ENDCHAR
STARTCHAR u.uni0075
ENCODING 117
SWIDTH 500 0
DWIDTH 10 0
BBX 9 9 0 0
BITMAP
8080
8080
8080
8080
8080
8080
8080
4100
3E00
ENDCHAR
STARTCHAR v.uni0076
ENCODING 118
SWIDTH 500 0
DWIDTH 10 0
BBX 9 9 0 0
BITMAP
8080
8080
8080
8080
8080
4100
2200
1400
0800
ENDCHAR
STARTCHAR w.uni0077
ENCODING 119
SWIDTH 500 0
DWIDTH 10 0
BBX 9 9 0 0
BITMAP
8880
8880
8880
8880
8880
8880
8880
5500
2200
ENDCHAR
STARTCHAR x.uni0078
ENCODING 120
SWIDTH 500 0
DWIDTH 10 0
BBX 9 9 0 0
BITMAP
8080
4100
2200
1400
0800
1400
2200
4100
8080
ENDCHAR
STARTCHAR y.uni0079
ENCODING 121
SWIDTH 500 0
DWIDTH 10 0
BBX 9 13 0 -4
BITMAP
8080
8080
8080
8080
8080
8080
8080
4080
3F80
0080
0100
0200
7C00
ENDCHAR
STARTCHAR z.uni007A
ENCODING 122
SWIDTH 500 0
DWIDTH 10 0
BBX 9 9 0 0
BITMAP
FF80
0100
0200
0400
0800
1000
2000
4000
FF80
ENDCHAR
STARTCHAR braceleft.uni007B
ENCODING 123
SWIDTH 500 0
DWIDTH 10 0
BBX 5 19 2 -4
BITMAP
0800
1000
2000
2000
2000
2000
2000
2000
4000
8000
4000
2000
2000
2000
2000
2000
2000
1000
0800
ENDCHAR
STARTCHAR bar.uni007C
ENCODING 124
SWIDTH 500 0
DWIDTH 10 0
BBX 1 19 4 -4
BITMAP
8000
8000
8000
8000
8000
8000
8000
8000
8000
8000
8000
8000
8000
8000
8000
8000
8000
8000
8000
ENDCHAR
STARTCHAR braceright.uni007D
ENCODING 125
SWIDTH 500 0
DWIDTH 10 0
BBX 5 19 2 -4
BITMAP
8000
4000
2000
2000
2000
2000
2000
2000
1000
0800
1000
2000
2000
2000
2000
2000
2000
4000
8000
ENDCHAR
STARTCHAR asciitilde.uni007E
ENCODING 126
SWIDTH 500 0
DWIDTH 10 0
BBX 9 5 0 5
BITMAP
2000
5000
8880
0500
0200
ENDCHAR
STARTCHAR logicalnot.uni00AC
ENCODING 172
SWIDTH 500 0
DWIDTH 10 0
BBX 9 5 0 5
BITMAP
FF80
0080
0080
0080
0080
ENDCHAR
STARTCHAR periodcentered.uni00B7
ENCODING 183
SWIDTH 500 0
DWIDTH 10 0
BBX 1 1 4 7
BITMAP
8000
ENDCHAR
STARTCHAR multiply.uni00D7
ENCODING 215
SWIDTH 500 0
DWIDTH 10 0
BBX 5 5 2 5
BITMAP
8800
5000
2000
5000
8800
ENDCHAR
STARTCHAR Gamma.uni0393
ENCODING 915
SWIDTH 500 0
DWIDTH 10 0
BBX 9 15 0 0
BITMAP
FF80
8000
8000
8000
8000
8000
8000
8000
8000
8000
8000
8000
8000
8000
8000
ENDCHAR
STARTCHAR uni0394.uni0394
ENCODING 916
SWIDTH 1000 0
DWIDTH 20 0
BBX 15 15 2 0
BITMAP
0100
0100
0280
0280
0440
0440
0820
0820
1010
1010
2008
2008
4004
4004
FFFE
ENDCHAR
STARTCHAR Lambda.uni039B
ENCODING 923
SWIDTH 1000 0
DWIDTH 20 0
BBX 15 15 2 0
BITMAP
0100
0100
0280
0280
0440
0440
0820
0820
1010
1010
2008
2008
4004
4004
C006
ENDCHAR
STARTCHAR Pi.uni03A0
ENCODING 928
SWIDTH 500 0
DWIDTH 10 0
BBX 9 15 0 0
BITMAP
FF80
8080
8080
8080
8080
8080
8080
8080
8080
8080
8080
8080
8080
8080
8080
ENDCHAR
STARTCHAR Sigma.uni03A3
ENCODING 931
SWIDTH 500 0
DWIDTH 10 0
BBX 9 15 0 0
BITMAP
FF80
4000
2000
1000
0800
0400
0200
0100
0200
0400
0800
1000
2000
4000
FF80
ENDCHAR
STARTCHAR alpha.uni03B1
ENCODING 945
SWIDTH 500 0
DWIDTH 10 0
BBX 9 11 0 -1
BITMAP
0080
3C80
4280
8100
8100
8100
8100
8100
4280
3C80
0080
ENDCHAR
STARTCHAR beta.uni03B2
ENCODING 946
SWIDTH 500 0
DWIDTH 10 0
BBX 9 19 0 -4
BITMAP
7C00
8200
8100
8100
8100
8200
8400
8400
8200
8100
8080
8080
8080
8100
FE00
8000
8000
8000
8000
ENDCHAR
STARTCHAR gamma.uni03B3
ENCODING 947
SWIDTH 500 0
DWIDTH 10 0
BBX 9 9 0 0
BITMAP
8080
4100
2200
1400
0800
0800
0800
0800
0800
ENDCHAR
STARTCHAR delta.uni03B4
ENCODING 948
SWIDTH 500 0
DWIDTH 10 0
BBX 9 15 0 0
BITMAP
1F00
2000
4000
8000
8000
4000
3C00
2200
4100
8080
8080
8080
4100
2200
1C00
ENDCHAR
STARTCHAR epsilon.uni03B5
ENCODING 949
SWIDTH 500 0
DWIDTH 10 0
BBX 9 9 0 0
BITMAP
3F80
4000
8000
4000
3F80
4000
8000
4000
3F80
ENDCHAR
STARTCHAR theta.uni03B8
ENCODING 952
SWIDTH 500 0
DWIDTH 10 0
BBX 9 15 0 0
BITMAP
3E00
4100
8080
8080
8080
8080
8080
FF80
8080
8080
8080
8080
8080
4100
3E00
ENDCHAR
STARTCHAR lambda.uni03BB
ENCODING 955
SWIDTH 500 0
DWIDTH 10 0
BBX 9 15 0 0
BITMAP
8000
8000
8000
8000
4000
2000
1000
0800
1400
2200
4100
8080
8080
8080
8080
ENDCHAR
STARTCHAR uni03BC.uni03BC
ENCODING 956
SWIDTH 500 0
DWIDTH 10 0
BBX 9 13 0 -4
BITMAP
8080
8080
8080
8080
8080
8080
8080
8100
FE00
8000
8000
8000
8000
ENDCHAR
STARTCHAR nu.uni03BD
ENCODING 957
SWIDTH 500 0
DWIDTH 10 0
BBX 9 9 0 0
BITMAP
8080
8080
8080
8080
8080
8100
8200
8400
F800
ENDCHAR
STARTCHAR pi.uni03C0
ENCODING 960
SWIDTH 500 0
DWIDTH 10 0
BBX 9 9 0 0
BITMAP
FF80
4100
4100
4100
4100
4100
4100
4100
4100
ENDCHAR
STARTCHAR sigma.uni03C3
ENCODING 963
SWIDTH 500 0
DWIDTH 10 0
BBX 9 9 0 0
BITMAP
3F80
4200
8100
8100
8100
8100
8100
4200
3C00
ENDCHAR
STARTCHAR tau.uni03C4
ENCODING 964
SWIDTH 500 0
DWIDTH 10 0
BBX 9 9 0 0
BITMAP
FF80
0800
0800
0800
0800
0800
0800
0800
0800
ENDCHAR
STARTCHAR phi.uni03C6
ENCODING 966
SWIDTH 500 0
DWIDTH 10 0
BBX 9 15 0 0
BITMAP
0200
0500
8880
8880
8880
8880
8880
8880
4900
3E00
0800
0800
0800
0800
0800
ENDCHAR
STARTCHAR chi.uni03C7
ENCODING 967
SWIDTH 500 0
DWIDTH 10 0
BBX 7 15 1 0
BITMAP
8000
8000
4400
4400
2800
2800
1000
1000
1000
2800
2800
4400
4400
0200
0200
ENDCHAR
STARTCHAR psi.uni03C8
ENCODING 968
SWIDTH 500 0
DWIDTH 10 0
BBX 9 15 0 0
BITMAP
8880
8880
8880
8880
8880
8880
8880
8880
4900
3E00
0800
0800
0800
0800
0800
ENDCHAR
STARTCHAR quotedblleft.uni201C
ENCODING 8220
SWIDTH 500 0
DWIDTH 10 0
BBX 5 3 2 12
BITMAP
A000
5000
2800
ENDCHAR
STARTCHAR quotedblright.uni201D
ENCODING 8221
SWIDTH 500 0
DWIDTH 10 0
BBX 5 3 2 12
BITMAP
2800
5000
A000
ENDCHAR
STARTCHAR uni2102.uni2102
ENCODING 8450
SWIDTH 500 0
DWIDTH 10 0
BBX 9 15 0 0
BITMAP
3E00
6100
A080
A000
A000
A000
A000
A000
A000
A000
A000
A000
A080
6100
3E00
ENDCHAR
STARTCHAR uni2115.uni2115
ENCODING 8469
SWIDTH 500 0
DWIDTH 10 0
BBX 9 15 0 0
BITMAP
8080
C080
A080
D080
A880
9480
8A80
8580
8280
8180
8080
8080
8080
8080
8080
ENDCHAR
STARTCHAR uni211A.uni211A
ENCODING 8474
SWIDTH 500 0
DWIDTH 10 0
BBX 9 15 0 0
BITMAP
3E00
6100
A080
A080
A080
A080
A080
A080
A080
A080
A080
A080
A280
6100
3E80
ENDCHAR
STARTCHAR uni211D.uni211D
ENCODING 8477
SWIDTH 500 0
DWIDTH 10 0
BBX 9 15 0 0
BITMAP
FE00
A100
A080
A080
A080
A080
A100
BE00
A100
A080
A080
A080
A080
A080
E080
ENDCHAR
STARTCHAR uni2124.uni2124
ENCODING 8484
SWIDTH 500 0
DWIDTH 10 0
BBX 9 15 0 0
BITMAP
FF80
0080
0080
0180
0280
0500
0A00
1400
2800
5000
A000
C000
8000
8000
FF80
ENDCHAR
STARTCHAR arrowleft.uni2190
ENCODING 8592
SWIDTH 500 0
DWIDTH 10 0
BBX 9 5 0 5
BITMAP
2000
4000
BF80
4000
2000
ENDCHAR
STARTCHAR arrowright.uni2192
ENCODING 8594
SWIDTH 500 0
DWIDTH 10 0
BBX 9 5 0 5
BITMAP
0200
0100
FE80
0100
0200
ENDCHAR
STARTCHAR arrowboth.uni2194
ENCODING 8596
SWIDTH 500 0
DWIDTH 10 0
BBX 9 5 0 5
BITMAP
2200
4100
BE80
4100
2200
ENDCHAR
STARTCHAR universal.uni2200
ENCODING 8704
SWIDTH 1000 0
DWIDTH 20 0
BBX 15 15 2 0
BITMAP
C006
4004
4004
2008
2008
1010
1010
0FE0
0820
0440
0440
0280
0280
0100
0100
ENDCHAR
STARTCHAR partialdiff.uni2202
ENCODING 8706
SWIDTH 500 0
DWIDTH 10 0
BBX 9 15 0 0
BITMAP
7000
0800
0400
0200
0100
0080
1C80
2280
4180
8080
8080
8080
4100
2200
1C00
ENDCHAR
STARTCHAR existential.uni2203
ENCODING 8707
SWIDTH 500 0
DWIDTH 10 0
BBX 9 15 0 0
BITMAP
FF80
0080
0080
0080
0080
0080
0080
FF80
0080
0080
0080
0080
0080
0080
FF80
ENDCHAR
STARTCHAR emptyset.uni2205
ENCODING 8709
SWIDTH 1000 0
DWIDTH 20 0
BBX 15 15 2 0
BITMAP
0FE2
1014
2008
4014
8022
8042
8082
8102
8202
8402
8802
5004
2008
5010
8FE0
ENDCHAR
STARTCHAR element.uni2208
ENCODING 8712
SWIDTH 500 0
DWIDTH 10 0
BBX 7 13 1 1
BITMAP
1E00
2000
4000
8000
8000
8000
FE00
8000
8000
8000
4000
2000
1E00
ENDCHAR
STARTCHAR notelement.uni2209
ENCODING 8713
SWIDTH 500 0
DWIDTH 10 0
BBX 9 13 0 1
BITMAP
0F00
1000
2080
4100
4200
4400
7F00
5000
6000
4000
A000
1000
0F00
ENDCHAR
STARTCHAR uni2218.uni2218
ENCODING 8728
SWIDTH 500 0
DWIDTH 10 0
BBX 5 5 2 5
BITMAP
7000
8800
8800
8800
7000
ENDCHAR
STARTCHAR infinity.uni221E
ENCODING 8734
SWIDTH 1000 0
DWIDTH 20 0
BBX 15 7 2 4
BITMAP
3838
4444
8282
8102
8282
4444
3838
ENDCHAR
STARTCHAR logicaland.uni2227
ENCODING 8743
SWIDTH 500 0
DWIDTH 10 0
BBX 9 10 0 3
BITMAP
0800
0800
1400
1400
2200
2200
4100
4100
8080
8080
ENDCHAR
STARTCHAR logicalor.uni2228
ENCODING 8744
SWIDTH 500 0
DWIDTH 10 0
BBX 9 10 0 3
BITMAP
8080
8080
4100
4100
2200
2200
1400
1400
0800
0800
ENDCHAR
STARTCHAR intersection.uni2229
ENCODING 8745
SWIDTH 500 0
DWIDTH 10 0
BBX 9 11 0 2
BITMAP
3E00
4100
8080
8080
8080
8080
8080
8080
8080
8080
8080
ENDCHAR
STARTCHAR union.uni222A
ENCODING 8746
SWIDTH 500 0
DWIDTH 10 0
BBX 9 11 0 2
BITMAP
8080
8080
8080
8080
8080
8080
8080
8080
8080
4100
3E00
ENDCHAR
STARTCHAR notequal.uni2260
ENCODING 8800
SWIDTH 500 0
DWIDTH 10 0
BBX 9 9 0 3
BITMAP
0080
0100
FF80
0400
0800
1000
FF80
4000
8000
ENDCHAR
STARTCHAR equivalence.uni2261
ENCODING 8801
SWIDTH 500 0
DWIDTH 10 0
BBX 9 7 0 4
BITMAP
FF80
0000
0000
FF80
0000
0000
FF80
ENDCHAR
STARTCHAR lessequal.uni2264
ENCODING 8804
SWIDTH 500 0
DWIDTH 10 0
BBX 5 11 2 1
BITMAP
0800
1000
2000
4000
8000
4000
2000
1000
0800
0000
F800
ENDCHAR
STARTCHAR greaterequal.uni2265
ENCODING 8805
SWIDTH 500 0
DWIDTH 10 0
BBX 5 11 2 1
BITMAP
8000
4000
2000
1000
0800
1000
2000
4000
8000
0000
F800
ENDCHAR
STARTCHAR propersubset.uni2282
ENCODING 8834
SWIDTH 500 0
DWIDTH 10 0
BBX 9 11 0 2
BITMAP
1F80
2000
4000
8000
8000
8000
8000
8000
4000
2000
1F80
ENDCHAR
STARTCHAR reflexsubset.uni2286
ENCODING 8838
SWIDTH 500 0
DWIDTH 10 0
BBX 9 13 0 0
BITMAP
1F80
2000
4000
8000
8000
8000
8000
8000
4000
2000
1F80
0000
7F80
ENDCHAR
STARTCHAR uni22C2.uni22C2
ENCODING 8898
SWIDTH 500 0
DWIDTH 10 0
BBX 9 17 0 -2
BITMAP
3E00
4100
8080
8080
8080
8080
8080
8080
8080
8080
8080
8080
8080
8080
8080
8080
8080
ENDCHAR
STARTCHAR uni22C3.uni22C3
ENCODING 8899
SWIDTH 500 0
DWIDTH 10 0
BBX 9 17 0 -2
BITMAP
8080
8080
8080
8080
8080
8080
8080
8080
8080
8080
8080
8080
8080
8080
8080
4100
3E00
ENDCHAR
STARTCHAR uni27E8.uni27E8
ENCODING 10216
SWIDTH 500 0
DWIDTH 10 0
BBX 9 19 0 -4
BITMAP
0080
0100
0200
0400
0800
1000
2000
4000
8000
8000
8000
4000
2000
1000
0800
0400
0200
0100
0080
ENDCHAR
STARTCHAR uni27E9.uni27E9
ENCODING 10217
SWIDTH 500 0
DWIDTH 10 0
BBX 9 19 0 -4
BITMAP
8000
4000
2000
1000
0800
0400
0200
0100
0080
0080
0080
0100
0200
0400
0800
1000
2000
4000
8000
ENDCHAR
ENDFONT
