STARTFONT 2.1
FONT -Patrick J. Thomas-Untitled-Normal-R-Normal-Regular-4-40-96-96-P-120--
SIZE 4 96 96
FONTBOUNDINGBOX 9 4 0 0
STARTPROPERTIES 32
FAMILY_NAME "Untitled"
DEFAULT_CHAR -1
FOUNDRY "Patrick J. Thomas"
COPYRIGHT "Copyright (c) 2025, Patrick J. Thomas. All rights reserved."
CODEPAGE "MS Windows 1252 Western (ANSI)"
ENC_MODE 2
ENC_ID 1
DESIGNER "Patrick J. Thomas"
CREATION_YEAR 2025
WEIGHT_NAME "Normal"
SLANT "R"
SETWIDTH_NAME "Normal"
ADD_STYLE_NAME "Regular"
SPACING "P"
WEIGHT 400
FACE_NAME "Untitled"
HI_VERSION 1
MENU_NAME "Untitled"
FONT_NAME "Untitled"
CP_RANGE_1 65535
CP_RANGE_2 65535
FONTNAME_REGISTRY "-"
BREAK_CHAR 32
PIXEL_SIZE 6
POINT_SIZE 40
FONT_ASCENT 4
FONT_DESCENT 2
RESOLUTION_X 96
RESOLUTION_Y 96
AVERAGE_WIDTH 120
X_HEIGHT 4
CAP_HEIGHT 4
ENDPROPERTIES
CHARS 19
STARTCHAR exclam.uni0021
ENCODING 33
SWIDTH 833 0
DWIDTH 10 0
BBX 9 4 0 0
BITMAP
2080
2080
2080
F780
ENDCHAR
STARTCHAR quotedbl.uni0022
ENCODING 34
SWIDTH 833 0
DWIDTH 10 0
BBX 9 4 0 0
BITMAP
2100
2100
2100
F780
ENDCHAR
STARTCHAR numbersign.uni0023
ENCODING 35
SWIDTH 833 0
DWIDTH 10 0
BBX 9 4 0 0
BITMAP
2180
2180
2180
F780
ENDCHAR
STARTCHAR dollar.uni0024
ENCODING 36
SWIDTH 833 0
DWIDTH 10 0
BBX 9 4 0 0
BITMAP
2200
2200
2200
F780
ENDCHAR
STARTCHAR percent.uni0025
ENCODING 37
SWIDTH 833 0
DWIDTH 10 0
BBX 9 4 0 0
BITMAP
2280
2280
2280
F780
ENDCHAR
STARTCHAR ampersand.uni0026
ENCODING 38
SWIDTH 833 0
DWIDTH 10 0
BBX 9 4 0 0
BITMAP
2300
2300
2300
F780
ENDCHAR
STARTCHAR quotesingle.uni0027
ENCODING 39
SWIDTH 833 0
DWIDTH 10 0
BBX 9 4 0 0
BITMAP
2380
2380
2380
F780
ENDCHAR
STARTCHAR parenleft.uni0028
ENCODING 40
SWIDTH 833 0
DWIDTH 10 0
BBX 9 4 0 0
BITMAP
2400
2400
2400
F780
ENDCHAR
STARTCHAR parenright.uni0029
ENCODING 41
SWIDTH 833 0
DWIDTH 10 0
BBX 9 4 0 0
BITMAP
2480
2480
2480
F780
ENDCHAR
STARTCHAR space.uni0020
ENCODING 32
SWIDTH 833 0
DWIDTH 10 0
BBX 0 0 0 0
BITMAP
ENDCHAR
STARTCHAR asterisk.uni002A
ENCODING 42
SWIDTH 2250 0
DWIDTH 12 0
BBX 9 4 0 0
BITMAP
2500
2500
2500
F780
ENDCHAR
STARTCHAR plus.uni002B
ENCODING 43
SWIDTH 2250 0
DWIDTH 12 0
BBX 9 4 0 0
BITMAP
2580
2580
2580
F780
ENDCHAR
STARTCHAR comma.uni002C
ENCODING 44
SWIDTH 2250 0
DWIDTH 12 0
BBX 9 4 0 0
BITMAP
2600
2600
2600
F780
ENDCHAR
STARTCHAR hyphen.uni002D
ENCODING 45
SWIDTH 2250 0
DWIDTH 12 0
BBX 9 4 0 0
BITMAP
2680
2680
2680
F780
ENDCHAR
STARTCHAR period.uni002E
ENCODING 46
SWIDTH 2250 0
DWIDTH 12 0
BBX 9 4 0 0
BITMAP
2700
2700
2700
F780
ENDCHAR
STARTCHAR slash.uni002F
ENCODING 47
SWIDTH 2250 0
DWIDTH 12 0
BBX 9 4 0 0
BITMAP
2780
2780
2780
F780
ENDCHAR
STARTCHAR zero.uni0030
ENCODING 48
SWIDTH 2250 0
DWIDTH 12 0
BBX 9 4 0 0
BITMAP
3000
3000
3000
F780
ENDCHAR
STARTCHAR one.uni0031
ENCODING 49
SWIDTH 2250 0
DWIDTH 12 0
BBX 9 4 0 0
BITMAP
3080
3080
3080
F780
ENDCHAR
STARTCHAR two.uni0032
ENCODING 50
SWIDTH 2250 0
DWIDTH 12 0
BBX 9 4 0 0
BITMAP
3100
3100
3100
F780
ENDCHAR
ENDFONT
