STARTFONT 2.1
FONT -Patrick J. Thomas-mono_size_4_design_4-Normal-R-Normal-Regular-12-120-96-96-P-80-ISO10646-1
SIZE 12 96 96
FONTBOUNDINGBOX 13 15 0 -4
STARTPROPERTIES 34
FAMILY_NAME "mono_size_4_design_4"
DEFAULT_CHAR -1
FOUNDRY "Patrick J. Thomas"
COPYRIGHT "Copyright (c) 2025, Patrick J. Thomas. All rights reserved."
CODEPAGE "MS Windows 1252 Western (ANSI)"
ENC_MODE 2
ENC_ID 1
DESIGNER "Patrick J. Thomas"
CREATION_YEAR 2025
WEIGHT_NAME "Normal"
SLANT "R"
SETWIDTH_NAME "Normal"
ADD_STYLE_NAME "Regular"
SPACING "P"
WEIGHT 400
FACE_NAME "mono_size_4_design_4"
HI_VERSION 1
MENU_NAME "mono_size_4_design_4"
FONT_NAME "mono_size_4_design_4"
CP_RANGE_1 65535
CP_RANGE_2 65535
FONTNAME_REGISTRY "-"
CHARSET_REGISTRY "ISO10646"
CHARSET_ENCODING "1"
BREAK_CHAR 32
PIXEL_SIZE 16
POINT_SIZE 120
FONT_ASCENT 11
FONT_DESCENT 5
RESOLUTION_X 96
RESOLUTION_Y 96
AVERAGE_WIDTH 80
X_HEIGHT 7
CAP_HEIGHT 11
ENDPROPERTIES
CHARS 150
STARTCHAR char32.uni0020
ENCODING 32
SWIDTH 500 0
DWIDTH 8 0
BBX 0 0 0 0
BITMAP
ENDCHAR
STARTCHAR char33.uni0021
ENCODING 33
SWIDTH 500 0
DWIDTH 8 0
BBX 1 11 3 0
BITMAP
8000
8000
8000
8000
8000
8000
8000
8000
0000
0000
8000
ENDCHAR
STARTCHAR char34.uni0022
ENCODING 34
SWIDTH 500 0
DWIDTH 8 0
BBX 3 3 2 8
BITMAP
A000
A000
A000
ENDCHAR
STARTCHAR char35.uni0023
ENCODING 35
SWIDTH 500 0
DWIDTH 8 0
BBX 7 7 0 2
BITMAP
2800
2800
FE00
2800
FE00
2800
2800
ENDCHAR
STARTCHAR char36.uni0024
ENCODING 36
SWIDTH 500 0
DWIDTH 8 0
BBX 5 11 1 0
BITMAP
2000
2000
7000
A800
A000
7000
2800
A800
7000
2000
2000
ENDCHAR
STARTCHAR char37.uni0025
ENCODING 37
SWIDTH 500 0
DWIDTH 8 0
BBX 7 7 0 2
BITMAP
4200
A400
4800
1000
2400
4A00
8400
ENDCHAR
STARTCHAR char38.uni0026
ENCODING 38
SWIDTH 500 0
DWIDTH 8 0
BBX 7 11 0 0
BITMAP
2000
5000
8800
8800
5000
2000
5000
8A00
8400
8A00
7000
ENDCHAR
STARTCHAR char39.uni0027
ENCODING 39
SWIDTH 500 0
DWIDTH 8 0
BBX 1 3 3 8
BITMAP
8000
8000
8000
ENDCHAR
STARTCHAR char40.uni0028
ENCODING 40
SWIDTH 500 0
DWIDTH 8 0
BBX 3 13 2 -2
BITMAP
2000
4000
8000
8000
8000
8000
8000
8000
8000
8000
8000
4000
2000
ENDCHAR
STARTCHAR char41.uni0029
ENCODING 41
SWIDTH 500 0
DWIDTH 8 0
BBX 3 13 2 -2
BITMAP
8000
4000
2000
2000
2000
2000
2000
2000
2000
2000
2000
4000
8000
ENDCHAR
STARTCHAR char42.uni002A
ENCODING 42
SWIDTH 500 0
DWIDTH 8 0
BBX 7 7 0 2
BITMAP
1000
9200
5400
3800
5400
9200
1000
ENDCHAR
STARTCHAR char43.uni002B
ENCODING 43
SWIDTH 500 0
DWIDTH 8 0
BBX 7 7 0 2
BITMAP
1000
1000
1000
FE00
1000
1000
1000
ENDCHAR
STARTCHAR char44.uni002C
ENCODING 44
SWIDTH 500 0
DWIDTH 8 0
BBX 3 3 2 -2
BITMAP
2000
4000
8000
ENDCHAR
STARTCHAR char45.uni002D
ENCODING 45
SWIDTH 500 0
DWIDTH 8 0
BBX 7 1 0 5
BITMAP
FE00
ENDCHAR
STARTCHAR char46.uni002E
ENCODING 46
SWIDTH 500 0
DWIDTH 8 0
BBX 1 1 3 0
BITMAP
8000
ENDCHAR
STARTCHAR char47.uni002F
ENCODING 47
SWIDTH 500 0
DWIDTH 8 0
BBX 7 7 0 2
BITMAP
0200
0400
0800
1000
2000
4000
8000
ENDCHAR
STARTCHAR char48.uni0030
ENCODING 48
SWIDTH 500 0
DWIDTH 8 0
BBX 7 11 0 0
BITMAP
3800
4400
8200
8600
8A00
9200
A200
C200
8200
4400
3800
ENDCHAR
STARTCHAR char49.uni0031
ENCODING 49
SWIDTH 500 0
DWIDTH 8 0
BBX 3 11 2 0
BITMAP
2000
6000
A000
2000
2000
2000
2000
2000
2000
2000
2000
ENDCHAR
STARTCHAR char50.uni0032
ENCODING 50
SWIDTH 500 0
DWIDTH 8 0
BBX 7 11 0 0
BITMAP
3800
4400
8200
0200
0400
0800
1000
2000
4000
8000
FE00
ENDCHAR
STARTCHAR char51.uni0033
ENCODING 51
SWIDTH 500 0
DWIDTH 8 0
BBX 7 11 0 0
BITMAP
3800
4400
8200
0200
0400
1800
0400
0200
8200
4400
3800
ENDCHAR
STARTCHAR char52.uni0034
ENCODING 52
SWIDTH 500 0
DWIDTH 8 0
BBX 7 11 0 0
BITMAP
0400
0C00
1400
2400
4400
FE00
0400
0400
0400
0400
0400
ENDCHAR
STARTCHAR char53.uni0035
ENCODING 53
SWIDTH 500 0
DWIDTH 8 0
BBX 7 11 0 0
BITMAP
FE00
8000
8000
8000
8000
F800
0400
0200
8200
4400
3800
ENDCHAR
STARTCHAR char54.uni0036
ENCODING 54
SWIDTH 500 0
DWIDTH 8 0
BBX 7 11 0 0
BITMAP
3800
4400
8200
8000
8000
B800
C400
8200
8200
4400
3800
ENDCHAR
STARTCHAR char55.uni0037
ENCODING 55
SWIDTH 500 0
DWIDTH 8 0
BBX 7 11 0 0
BITMAP
FE00
0200
0200
0400
0800
1000
1000
1000
1000
1000
1000
ENDCHAR
STARTCHAR char56.uni0038
ENCODING 56
SWIDTH 500 0
DWIDTH 8 0
BBX 7 11 0 0
BITMAP
3800
4400
8200
8200
4400
3800
4400
8200
8200
4400
3800
ENDCHAR
STARTCHAR char57.uni0039
ENCODING 57
SWIDTH 500 0
DWIDTH 8 0
BBX 7 11 0 0
BITMAP
3800
4400
8200
8200
8200
4600
3A00
0200
8200
4400
3800
ENDCHAR
STARTCHAR char58.uni003A
ENCODING 58
SWIDTH 500 0
DWIDTH 8 0
BBX 1 7 3 2
BITMAP
8000
0000
0000
0000
0000
0000
8000
ENDCHAR
STARTCHAR char59.uni003B
ENCODING 59
SWIDTH 500 0
DWIDTH 8 0
BBX 3 9 2 0
BITMAP
2000
0000
0000
0000
0000
0000
2000
4000
8000
ENDCHAR
STARTCHAR char60.uni003C
ENCODING 60
SWIDTH 500 0
DWIDTH 8 0
BBX 5 9 1 1
BITMAP
0800
1000
2000
4000
8000
4000
2000
1000
0800
ENDCHAR
STARTCHAR char61.uni003D
ENCODING 61
SWIDTH 500 0
DWIDTH 8 0
BBX 7 5 0 3
BITMAP
FE00
0000
0000
0000
FE00
ENDCHAR
STARTCHAR char62.uni003E
ENCODING 62
SWIDTH 500 0
DWIDTH 8 0
BBX 5 9 1 1
BITMAP
8000
4000
2000
1000
0800
1000
2000
4000
8000
ENDCHAR
STARTCHAR char63.uni003F
ENCODING 63
SWIDTH 500 0
DWIDTH 8 0
BBX 7 11 0 0
BITMAP
3800
4400
8200
8200
0400
0800
1000
1000
1000
0000
1000
ENDCHAR
STARTCHAR char64.uni0040
ENCODING 64
SWIDTH 500 0
DWIDTH 8 0
BBX 7 11 0 0
BITMAP
3800
4400
8200
9A00
AA00
AA00
AA00
9C00
8000
4200
3C00
ENDCHAR
STARTCHAR char65.uni0041
ENCODING 65
SWIDTH 500 0
DWIDTH 8 0
BBX 7 11 0 0
BITMAP
3800
4400
8200
8200
8200
FE00
8200
8200
8200
8200
8200
ENDCHAR
STARTCHAR char66.uni0042
ENCODING 66
SWIDTH 500 0
DWIDTH 8 0
BBX 7 11 0 0
BITMAP
F800
8400
8200
8200
8400
F800
8400
8200
8200
8400
F800
ENDCHAR
STARTCHAR char67.uni0043
ENCODING 67
SWIDTH 500 0
DWIDTH 8 0
BBX 7 11 0 0
BITMAP
3800
4400
8200
8000
8000
8000
8000
8000
8200
4400
3800
ENDCHAR
STARTCHAR char68.uni0044
ENCODING 68
SWIDTH 500 0
DWIDTH 8 0
BBX 7 11 0 0
BITMAP
F800
8400
8200
8200
8200
8200
8200
8200
8200
8400
F800
ENDCHAR
STARTCHAR char69.uni0045
ENCODING 69
SWIDTH 500 0
DWIDTH 8 0
BBX 7 11 0 0
BITMAP
FE00
8000
8000
8000
8000
FC00
8000
8000
8000
8000
FE00
ENDCHAR
STARTCHAR char70.uni0046
ENCODING 70
SWIDTH 500 0
DWIDTH 8 0
BBX 7 11 0 0
BITMAP
FE00
8000
8000
8000
8000
FC00
8000
8000
8000
8000
8000
ENDCHAR
STARTCHAR char71.uni0047
ENCODING 71
SWIDTH 500 0
DWIDTH 8 0
BBX 7 11 0 0
BITMAP
3800
4400
8200
8000
8000
8E00
8200
8200
8200
4400
3800
ENDCHAR
STARTCHAR char72.uni0048
ENCODING 72
SWIDTH 500 0
DWIDTH 8 0
BBX 7 11 0 0
BITMAP
8200
8200
8200
8200
8200
FE00
8200
8200
8200
8200
8200
ENDCHAR
STARTCHAR char73.uni0049
ENCODING 73
SWIDTH 500 0
DWIDTH 8 0
BBX 5 11 1 0
BITMAP
F800
2000
2000
2000
2000
2000
2000
2000
2000
2000
F800
ENDCHAR
STARTCHAR char74.uni004A
ENCODING 74
SWIDTH 500 0
DWIDTH 8 0
BBX 7 11 0 0
BITMAP
0200
0200
0200
0200
0200
0200
0200
8200
8200
4400
3800
ENDCHAR
STARTCHAR char75.uni004B
ENCODING 75
SWIDTH 500 0
DWIDTH 8 0
BBX 7 11 0 0
BITMAP
8200
8400
8800
9000
A000
C000
A000
9000
8800
8400
8200
ENDCHAR
STARTCHAR char76.uni004C
ENCODING 76
SWIDTH 500 0
DWIDTH 8 0
BBX 7 11 0 0
BITMAP
8000
8000
8000
8000
8000
8000
8000
8000
8000
8000
FE00
ENDCHAR
STARTCHAR char77.uni004D
ENCODING 77
SWIDTH 500 0
DWIDTH 8 0
BBX 7 11 0 0
BITMAP
8200
C600
AA00
9200
8200
8200
8200
8200
8200
8200
8200
ENDCHAR
STARTCHAR char78.uni004E
ENCODING 78
SWIDTH 500 0
DWIDTH 8 0
BBX 7 11 0 0
BITMAP
8200
C200
A200
9200
8A00
8600
8200
8200
8200
8200
8200
ENDCHAR
STARTCHAR char79.uni004F
ENCODING 79
SWIDTH 500 0
DWIDTH 8 0
BBX 7 11 0 0
BITMAP
3800
4400
8200
8200
8200
8200
8200
8200
8200
4400
3800
ENDCHAR
STARTCHAR char80.uni0050
ENCODING 80
SWIDTH 500 0
DWIDTH 8 0
BBX 7 11 0 0
BITMAP
F800
8400
8200
8200
8400
F800
8000
8000
8000
8000
8000
ENDCHAR
STARTCHAR char81.uni0051
ENCODING 81
SWIDTH 500 0
DWIDTH 8 0
BBX 7 11 0 0
BITMAP
3800
4400
8200
8200
8200
8200
8200
8200
8A00
4400
3A00
ENDCHAR
STARTCHAR char82.uni0052
ENCODING 82
SWIDTH 500 0
DWIDTH 8 0
BBX 7 11 0 0
BITMAP
F800
8400
8200
8200
8400
F800
8400
8200
8200
8200
8200
ENDCHAR
STARTCHAR char83.uni0053
ENCODING 83
SWIDTH 500 0
DWIDTH 8 0
BBX 7 11 0 0
BITMAP
3800
4400
8200
8000
4000
3800
0400
0200
8200
4400
3800
ENDCHAR
STARTCHAR char84.uni0054
ENCODING 84
SWIDTH 500 0
DWIDTH 8 0
BBX 7 11 0 0
BITMAP
FE00
1000
1000
1000
1000
1000
1000
1000
1000
1000
1000
ENDCHAR
STARTCHAR char85.uni0055
ENCODING 85
SWIDTH 500 0
DWIDTH 8 0
BBX 7 11 0 0
BITMAP
8200
8200
8200
8200
8200
8200
8200
8200
8200
4400
3800
ENDCHAR
STARTCHAR char86.uni0056
ENCODING 86
SWIDTH 500 0
DWIDTH 8 0
BBX 7 11 0 0
BITMAP
8200
8200
8200
8200
8200
8200
8200
8200
4400
2800
1000
ENDCHAR
STARTCHAR char87.uni0057
ENCODING 87
SWIDTH 500 0
DWIDTH 8 0
BBX 7 11 0 0
BITMAP
8200
8200
8200
8200
8200
8200
8200
9200
AA00
C600
8200
ENDCHAR
STARTCHAR char88.uni0058
ENCODING 88
SWIDTH 500 0
DWIDTH 8 0
BBX 7 11 0 0
BITMAP
8200
8200
8200
4400
2800
1000
2800
4400
8200
8200
8200
ENDCHAR
STARTCHAR char89.uni0059
ENCODING 89
SWIDTH 500 0
DWIDTH 8 0
BBX 7 11 0 0
BITMAP
8200
8200
8200
4400
2800
1000
1000
1000
1000
1000
1000
ENDCHAR
STARTCHAR char90.uni005A
ENCODING 90
SWIDTH 500 0
DWIDTH 8 0
BBX 7 11 0 0
BITMAP
FE00
0200
0200
0400
0800
1000
2000
4000
8000
8000
FE00
ENDCHAR
STARTCHAR char91.uni005B
ENCODING 91
SWIDTH 500 0
DWIDTH 8 0
BBX 3 13 2 -2
BITMAP
E000
8000
8000
8000
8000
8000
8000
8000
8000
8000
8000
8000
E000
ENDCHAR
STARTCHAR char92.uni005C
ENCODING 92
SWIDTH 500 0
DWIDTH 8 0
BBX 7 7 0 2
BITMAP
8000
4000
2000
1000
0800
0400
0200
ENDCHAR
STARTCHAR char93.uni005D
ENCODING 93
SWIDTH 500 0
DWIDTH 8 0
BBX 3 13 2 -2
BITMAP
E000
2000
2000
2000
2000
2000
2000
2000
2000
2000
2000
2000
E000
ENDCHAR
STARTCHAR char94.uni005E
ENCODING 94
SWIDTH 500 0
DWIDTH 8 0
BBX 5 3 1 8
BITMAP
2000
5000
8800
ENDCHAR
STARTCHAR char95.uni005F
ENCODING 95
SWIDTH 500 0
DWIDTH 8 0
BBX 5 1 1 0
BITMAP
F800
ENDCHAR
STARTCHAR char96.uni0060
ENCODING 96
SWIDTH 500 0
DWIDTH 8 0
BBX 3 3 2 8
BITMAP
8000
4000
2000
ENDCHAR
STARTCHAR char97.uni0061
ENCODING 97
SWIDTH 500 0
DWIDTH 8 0
BBX 7 7 0 0
BITMAP
7800
0400
0200
7E00
8200
8200
7E00
ENDCHAR
STARTCHAR char98.uni0062
ENCODING 98
SWIDTH 500 0
DWIDTH 8 0
BBX 7 11 0 0
BITMAP
8000
8000
8000
8000
F800
8400
8200
8200
8200
8400
F800
ENDCHAR
STARTCHAR char99.uni0063
ENCODING 99
SWIDTH 500 0
DWIDTH 8 0
BBX 7 7 0 0
BITMAP
3C00
4200
8000
8000
8000
4200
3C00
ENDCHAR
STARTCHAR char100.uni0064
ENCODING 100
SWIDTH 500 0
DWIDTH 8 0
BBX 7 11 0 0
BITMAP
0200
0200
0200
0200
3E00
4200
8200
8200
8200
4200
3E00
ENDCHAR
STARTCHAR char101.uni0065
ENCODING 101
SWIDTH 500 0
DWIDTH 8 0
BBX 7 7 0 0
BITMAP
3800
4400
8200
FE00
8000
4000
3C00
ENDCHAR
STARTCHAR char102.uni0066
ENCODING 102
SWIDTH 500 0
DWIDTH 8 0
BBX 7 11 0 0
BITMAP
0E00
1000
2000
2000
F800
2000
2000
2000
2000
2000
2000
ENDCHAR
STARTCHAR char103.uni0067
ENCODING 103
SWIDTH 500 0
DWIDTH 8 0
BBX 7 11 0 -4
BITMAP
3E00
4200
8200
8200
8200
4200
3E00
0200
0200
0400
3800
ENDCHAR
STARTCHAR char104.uni0068
ENCODING 104
SWIDTH 500 0
DWIDTH 8 0
BBX 7 11 0 0
BITMAP
8000
8000
8000
8000
F800
8400
8200
8200
8200
8200
8200
ENDCHAR
STARTCHAR char105.uni0069
ENCODING 105
SWIDTH 500 0
DWIDTH 8 0
BBX 7 10 0 0
BITMAP
1000
0000
0000
7000
1000
1000
1000
1000
1000
FE00
ENDCHAR
STARTCHAR char106.uni006A
ENCODING 106
SWIDTH 500 0
DWIDTH 8 0
BBX 5 14 1 -4
BITMAP
0800
0000
0000
3800
0800
0800
0800
0800
0800
0800
0800
0800
1000
E000
ENDCHAR
STARTCHAR char107.uni006B
ENCODING 107
SWIDTH 500 0
DWIDTH 8 0
BBX 5 11 1 0
BITMAP
8000
8000
8000
8000
8800
9000
A000
C000
A000
9000
8800
ENDCHAR
STARTCHAR char108.uni006C
ENCODING 108
SWIDTH 500 0
DWIDTH 8 0
BBX 7 11 0 0
BITMAP
7000
1000
1000
1000
1000
1000
1000
1000
1000
1000
FE00
ENDCHAR
STARTCHAR char109.uni006D
ENCODING 109
SWIDTH 500 0
DWIDTH 8 0
BBX 7 7 0 0
BITMAP
6C00
9200
9200
9200
9200
9200
9200
ENDCHAR
STARTCHAR char110.uni006E
ENCODING 110
SWIDTH 500 0
DWIDTH 8 0
BBX 7 7 0 0
BITMAP
F800
8400
8200
8200
8200
8200
8200
ENDCHAR
STARTCHAR char111.uni006F
ENCODING 111
SWIDTH 500 0
DWIDTH 8 0
BBX 7 7 0 0
BITMAP
3800
4400
8200
8200
8200
4400
3800
ENDCHAR
STARTCHAR char112.uni0070
ENCODING 112
SWIDTH 500 0
DWIDTH 8 0
BBX 7 11 0 -4
BITMAP
F800
8400
8200
8200
8200
8400
F800
8000
8000
8000
8000
ENDCHAR
STARTCHAR char113.uni0071
ENCODING 113
SWIDTH 500 0
DWIDTH 8 0
BBX 7 11 0 -4
BITMAP
3E00
4200
8200
8200
8200
4200
3E00
0200
0200
0200
0200
ENDCHAR
STARTCHAR char114.uni0072
ENCODING 114
SWIDTH 500 0
DWIDTH 8 0
BBX 7 7 0 0
BITMAP
F800
8400
8200
8000
8000
8000
8000
ENDCHAR
STARTCHAR char115.uni0073
ENCODING 115
SWIDTH 500 0
DWIDTH 8 0
BBX 7 7 0 0
BITMAP
3C00
4000
8000
7C00
0200
0400
7800
ENDCHAR
STARTCHAR char116.uni0074
ENCODING 116
SWIDTH 500 0
DWIDTH 8 0
BBX 7 11 0 0
BITMAP
1000
1000
1000
1000
FE00
1000
1000
1000
1000
1000
1000
ENDCHAR
STARTCHAR char117.uni0075
ENCODING 117
SWIDTH 500 0
DWIDTH 8 0
BBX 7 7 0 0
BITMAP
8200
8200
8200
8200
8200
4400
3800
ENDCHAR
STARTCHAR char118.uni0076
ENCODING 118
SWIDTH 500 0
DWIDTH 8 0
BBX 7 7 0 0
BITMAP
8200
8200
8200
8200
4400
2800
1000
ENDCHAR
STARTCHAR char119.uni0077
ENCODING 119
SWIDTH 500 0
DWIDTH 8 0
BBX 7 7 0 0
BITMAP
9200
9200
9200
9200
9200
9200
6C00
ENDCHAR
STARTCHAR char120.uni0078
ENCODING 120
SWIDTH 500 0
DWIDTH 8 0
BBX 7 7 0 0
BITMAP
8200
4400
2800
1000
2800
4400
8200
ENDCHAR
STARTCHAR char121.uni0079
ENCODING 121
SWIDTH 500 0
DWIDTH 8 0
BBX 7 11 0 -4
BITMAP
8200
8200
8200
8200
8200
4200
3E00
0200
0200
0400
3800
ENDCHAR
STARTCHAR char122.uni007A
ENCODING 122
SWIDTH 500 0
DWIDTH 8 0
BBX 7 7 0 0
BITMAP
FE00
0400
0800
1000
2000
4000
FE00
ENDCHAR
STARTCHAR char123.uni007B
ENCODING 123
SWIDTH 500 0
DWIDTH 8 0
BBX 3 13 2 -2
BITMAP
2000
4000
4000
4000
4000
4000
8000
4000
4000
4000
4000
4000
2000
ENDCHAR
STARTCHAR char124.uni007C
ENCODING 124
SWIDTH 500 0
DWIDTH 8 0
BBX 1 13 3 -2
BITMAP
8000
8000
8000
8000
8000
8000
8000
8000
8000
8000
8000
8000
8000
ENDCHAR
STARTCHAR char125.uni007D
ENCODING 125
SWIDTH 500 0
DWIDTH 8 0
BBX 3 13 2 -2
BITMAP
8000
4000
4000
4000
4000
4000
2000
4000
4000
4000
4000
4000
8000
ENDCHAR
STARTCHAR char126.uni007E
ENCODING 126
SWIDTH 500 0
DWIDTH 8 0
BBX 5 3 1 4
BITMAP
4000
A800
1000
ENDCHAR
STARTCHAR logicalnot.uni00AC
ENCODING 172
SWIDTH 500 0
DWIDTH 8 0
BBX 7 3 0 8
BITMAP
FE00
0200
0200
ENDCHAR
STARTCHAR periodcentered.uni00B7
ENCODING 183
SWIDTH 500 0
DWIDTH 8 0
BBX 1 1 3 5
BITMAP
8000
ENDCHAR
STARTCHAR multiply.uni00D7
ENCODING 215
SWIDTH 500 0
DWIDTH 8 0
BBX 5 5 1 3
BITMAP
8800
5000
2000
5000
8800
ENDCHAR
STARTCHAR Pi.uni03A0
ENCODING 928
SWIDTH 500 0
DWIDTH 8 0
BBX 7 11 0 0
BITMAP
FE00
8200
8200
8200
8200
8200
8200
8200
8200
8200
8200
ENDCHAR
STARTCHAR Sigma.uni03A3
ENCODING 931
SWIDTH 500 0
DWIDTH 8 0
BBX 7 11 0 0
BITMAP
FE00
8000
4000
2000
1000
0800
1000
2000
4000
8000
FE00
ENDCHAR
STARTCHAR alpha.uni03B1
ENCODING 945
SWIDTH 500 0
DWIDTH 8 0
BBX 7 7 0 0
BITMAP
3200
4A00
8400
8400
8400
4A00
3200
ENDCHAR
STARTCHAR beta.uni03B2
ENCODING 946
SWIDTH 500 0
DWIDTH 8 0
BBX 7 13 0 -2
BITMAP
7000
8800
8400
8800
9000
8800
8400
8200
8400
8800
F000
8000
8000
ENDCHAR
STARTCHAR epsilon.uni03B5
ENCODING 949
SWIDTH 500 0
DWIDTH 8 0
BBX 7 7 0 0
BITMAP
7E00
8000
8000
7E00
8000
8000
7E00
ENDCHAR
STARTCHAR theta.uni03B8
ENCODING 952
SWIDTH 500 0
DWIDTH 8 0
BBX 7 11 0 0
BITMAP
3800
4400
8200
8200
8200
FE00
8200
8200
8200
4400
3800
ENDCHAR
STARTCHAR phi.uni03C6
ENCODING 966
SWIDTH 500 0
DWIDTH 8 0
BBX 7 11 0 0
BITMAP
8C00
9200
9200
9200
9200
7C00
1000
1000
1000
1000
1000
ENDCHAR
STARTCHAR psi.uni03C8
ENCODING 968
SWIDTH 500 0
DWIDTH 8 0
BBX 7 11 0 0
BITMAP
9200
9200
9200
9200
9200
7C00
1000
1000
1000
1000
1000
ENDCHAR
STARTCHAR quotedblleft.uni201C
ENCODING 8220
SWIDTH 500 0
DWIDTH 8 0
BBX 5 3 1 8
BITMAP
A000
5000
2800
ENDCHAR
STARTCHAR quotedblright.uni201D
ENCODING 8221
SWIDTH 500 0
DWIDTH 8 0
BBX 5 3 1 8
BITMAP
2800
5000
A000
ENDCHAR
STARTCHAR uni2102.uni2102
ENCODING 8450
SWIDTH 500 0
DWIDTH 8 0
BBX 7 11 0 0
BITMAP
3800
6400
A200
A000
A000
A000
A000
A000
A200
6400
3800
ENDCHAR
STARTCHAR uni2115.uni2115
ENCODING 8469
SWIDTH 500 0
DWIDTH 8 0
BBX 7 11 0 0
BITMAP
8200
C200
A200
D200
AA00
9600
8A00
8600
8200
8200
8200
ENDCHAR
STARTCHAR uni211A.uni211A
ENCODING 8474
SWIDTH 500 0
DWIDTH 8 0
BBX 7 11 0 0
BITMAP
3800
6400
A200
A200
A200
A200
A200
A200
AA00
6400
3A00
ENDCHAR
STARTCHAR uni211D.uni211D
ENCODING 8477
SWIDTH 500 0
DWIDTH 8 0
BBX 7 11 0 0
BITMAP
F800
A400
A200
A200
A400
B800
A400
A200
A200
A200
A200
ENDCHAR
STARTCHAR uni2124.uni2124
ENCODING 8484
SWIDTH 500 0
DWIDTH 8 0
BBX 7 11 0 0
BITMAP
FE00
0200
0600
0A00
1400
2800
5000
A000
C000
8000
FE00
ENDCHAR
STARTCHAR arrowleft.uni2190
ENCODING 8592
SWIDTH 500 0
DWIDTH 8 0
BBX 7 5 0 3
BITMAP
2000
4000
BE00
4000
2000
ENDCHAR
STARTCHAR arrowright.uni2192
ENCODING 8594
SWIDTH 500 0
DWIDTH 8 0
BBX 7 5 0 3
BITMAP
0800
0400
FA00
0400
0800
ENDCHAR
STARTCHAR arrowboth.uni2194
ENCODING 8596
SWIDTH 500 0
DWIDTH 8 0
BBX 7 5 0 3
BITMAP
2800
4400
BA00
4400
2800
ENDCHAR
STARTCHAR universal.uni2200
ENCODING 8704
SWIDTH 1000 0
DWIDTH 16 0
BBX 11 11 2 0
BITMAP
C060
4040
4040
2080
2080
1F00
1100
0A00
0A00
0400
0400
ENDCHAR
STARTCHAR existential.uni2203
ENCODING 8707
SWIDTH 1000 0
DWIDTH 16 0
BBX 7 11 4 0
BITMAP
FE00
0200
0200
0200
0200
7E00
0200
0200
0200
0200
FE00
ENDCHAR
STARTCHAR emptyset.uni2205
ENCODING 8709
SWIDTH 500 0
DWIDTH 8 0
BBX 7 11 0 0
BITMAP
3800
4400
8600
8600
8A00
9200
A200
C200
C200
4400
3800
ENDCHAR
STARTCHAR element.uni2208
ENCODING 8712
SWIDTH 500 0
DWIDTH 8 0
BBX 7 9 0 1
BITMAP
1E00
2000
4000
8000
FE00
8000
4000
2000
1E00
ENDCHAR
STARTCHAR notelement.uni2209
ENCODING 8713
SWIDTH 400 0
DWIDTH 8 0
BBX 7 9 0 1
BITMAP
1E00
2200
4400
8800
FE00
A000
4000
A000
1E00
ENDCHAR
STARTCHAR infinity.uni221E
ENCODING 8734
SWIDTH 500 0
DWIDTH 8 0
BBX 7 5 0 3
BITMAP
4400
AA00
9200
AA00
4400
ENDCHAR
STARTCHAR logicaland.uni2227
ENCODING 8743
SWIDTH 500 0
DWIDTH 8 0
BBX 7 4 0 3
BITMAP
1000
2800
4400
8200
ENDCHAR
STARTCHAR logicalor.uni2228
ENCODING 8744
SWIDTH 500 0
DWIDTH 8 0
BBX 7 4 0 3
BITMAP
8200
4400
2800
1000
ENDCHAR
STARTCHAR intersection.uni2229
ENCODING 8745
SWIDTH 500 0
DWIDTH 8 0
BBX 7 11 0 0
BITMAP
3800
4400
8200
8200
8200
8200
8200
8200
8200
8200
8200
ENDCHAR
STARTCHAR union.uni222A
ENCODING 8746
SWIDTH 500 0
DWIDTH 8 0
BBX 7 11 0 0
BITMAP
8200
8200
8200
8200
8200
8200
8200
8200
8200
4400
3800
ENDCHAR
STARTCHAR equivalence.uni2261
ENCODING 8801
SWIDTH 500 0
DWIDTH 8 0
BBX 7 5 0 3
BITMAP
FE00
0000
FE00
0000
FE00
ENDCHAR
STARTCHAR lessequal.uni2264
ENCODING 8804
SWIDTH 500 0
DWIDTH 8 0
BBX 5 11 1 0
BITMAP
0800
1000
2000
4000
8000
4000
2000
1000
0800
0000
F800
ENDCHAR
STARTCHAR greaterequal.uni2265
ENCODING 8805
SWIDTH 500 0
DWIDTH 8 0
BBX 5 11 1 0
BITMAP
8000
4000
2000
1000
0800
1000
2000
4000
8000
0000
F800
ENDCHAR
STARTCHAR propersubset.uni2282
ENCODING 8834
SWIDTH 500 0
DWIDTH 8 0
BBX 7 11 0 0
BITMAP
1E00
2000
4000
8000
8000
8000
8000
8000
4000
2000
1E00
ENDCHAR
STARTCHAR reflexsubset.uni2286
ENCODING 8838
SWIDTH 500 0
DWIDTH 8 0
BBX 7 13 0 -2
BITMAP
1E00
2000
4000
8000
8000
8000
8000
8000
4000
2000
1E00
0000
1E00
ENDCHAR
STARTCHAR uni22C2.uni22C2
ENCODING 8898
SWIDTH 500 0
DWIDTH 8 0
BBX 7 15 0 -4
BITMAP
3800
4400
8200
8200
8200
8200
8200
8200
8200
8200
8200
8200
8200
8200
8200
ENDCHAR
STARTCHAR uni22C3.uni22C3
ENCODING 8899
SWIDTH 500 0
DWIDTH 8 0
BBX 7 15 0 -4
BITMAP
8200
8200
8200
8200
8200
8200
8200
8200
8200
8200
8200
8200
8200
4400
3800
ENDCHAR
STARTCHAR uni27E8.uni27E8
ENCODING 10216
SWIDTH 500 0
DWIDTH 8 0
BBX 7 13 0 -2
BITMAP
0200
0400
0800
1000
2000
4000
8000
4000
2000
1000
0800
0400
0200
ENDCHAR
STARTCHAR uni27E9.uni27E9
ENCODING 10217
SWIDTH 500 0
DWIDTH 8 0
BBX 7 13 0 -2
BITMAP
8000
4000
2000
1000
0800
0400
0200
0400
0800
1000
2000
4000
8000
ENDCHAR
STARTCHAR Gamma.uni0393
ENCODING 915
SWIDTH 400 0
DWIDTH 8 0
BBX 7 11 0 0
BITMAP
FE00
8000
8000
8000
8000
8000
8000
8000
8000
8000
8000
ENDCHAR
STARTCHAR uni0394.uni0394
ENCODING 916
SWIDTH 1000 0
DWIDTH 16 0
BBX 11 11 2 0
BITMAP
0400
0400
0A00
0A00
1100
1100
2080
2080
4040
4040
FFE0
ENDCHAR
STARTCHAR Lambda.uni039B
ENCODING 923
SWIDTH 1000 0
DWIDTH 16 0
BBX 11 11 2 0
BITMAP
0400
0400
0A00
0A00
1100
1100
2080
2080
4040
4040
C060
ENDCHAR
STARTCHAR gamma.uni03B3
ENCODING 947
SWIDTH 400 0
DWIDTH 8 0
BBX 7 9 0 -2
BITMAP
8200
8200
8200
8200
4400
2800
1000
2000
C000
ENDCHAR
STARTCHAR delta.uni03B4
ENCODING 948
SWIDTH 400 0
DWIDTH 8 0
BBX 7 11 0 0
BITMAP
3C00
4000
8000
4000
3800
4400
8200
8200
8200
4400
3800
ENDCHAR
STARTCHAR lambda.uni03BB
ENCODING 955
SWIDTH 400 0
DWIDTH 8 0
BBX 7 11 0 0
BITMAP
8000
8000
8000
4000
2000
1000
2800
4400
8200
8200
8200
ENDCHAR
STARTCHAR uni03BC.uni03BC
ENCODING 956
SWIDTH 400 0
DWIDTH 8 0
BBX 7 9 0 -2
BITMAP
8200
8200
8200
8200
8200
8400
F800
8000
8000
ENDCHAR
STARTCHAR nu.uni03BD
ENCODING 957
SWIDTH 400 0
DWIDTH 8 0
BBX 7 7 0 0
BITMAP
8200
8200
8200
8400
8800
9000
E000
ENDCHAR
STARTCHAR pi.uni03C0
ENCODING 960
SWIDTH 400 0
DWIDTH 8 0
BBX 7 7 0 0
BITMAP
FE00
4400
4400
4400
4400
4400
4400
ENDCHAR
STARTCHAR sigma.uni03C3
ENCODING 963
SWIDTH 400 0
DWIDTH 8 0
BBX 7 7 0 0
BITMAP
7E00
8400
8400
8400
8400
8400
7800
ENDCHAR
STARTCHAR tau.uni03C4
ENCODING 964
SWIDTH 400 0
DWIDTH 8 0
BBX 7 7 0 0
BITMAP
FE00
1000
1000
1000
1000
1000
1000
ENDCHAR
STARTCHAR chi.uni03C7
ENCODING 967
SWIDTH 400 0
DWIDTH 8 0
BBX 7 11 0 0
BITMAP
0200
0200
8200
4400
2800
1000
2800
4400
8200
8000
8000
ENDCHAR
STARTCHAR partialdiff.uni2202
ENCODING 8706
SWIDTH 400 0
DWIDTH 8 0
BBX 7 11 0 0
BITMAP
3000
0800
0400
0200
0200
3E00
4200
8200
8200
4200
3C00
ENDCHAR
STARTCHAR notequal.uni2260
ENCODING 8800
SWIDTH 400 0
DWIDTH 8 0
BBX 7 9 0 1
BITMAP
1000
1000
FE00
1000
1000
1000
FE00
1000
1000
ENDCHAR
STARTCHAR uni2218.uni2218
ENCODING 8728
SWIDTH 500 0
DWIDTH 8 0
BBX 3 3 2 4
BITMAP
4000
A000
4000
ENDCHAR
ENDFONT
