STARTFONT 2.1
FONT -Patrick J. Thomas-mono_size_6_design_1-Normal-R-Normal-Regular-19-190-96-96-P-100--
SIZE 19 96 96
FONTBOUNDINGBOX 19 25 0 -6
STARTPROPERTIES 29
FAMILY_NAME "mono_size_6_design_1"
DEFAULT_CHAR -1
FOUNDRY "Patrick J. Thomas"
COPYRIGHT "Copyright (c) 2025, Patrick J. Thomas. All rights reserved."
CODEPAGE "MS Windows 1252 Western (ANSI)"
ENC_MODE 2
DESIGNER "Patrick J. Thomas"
CREATION_YEAR 2025
WEIGHT_NAME "Normal"
SLANT "R"
SETWIDTH_NAME "Normal"
ADD_STYLE_NAME "Regular"
SPACING "P"
WEIGHT 400
FACE_NAME "mono_size_6_design_1"
HI_VERSION 1
MENU_NAME "mono_size_6_design_1"
FONT_NAME "mono_size_6_design_1"
FONTNAME_REGISTRY "-"
BREAK_CHAR 32
PIXEL_SIZE 26
POINT_SIZE 190
FONT_ASCENT 19
FONT_DESCENT 7
RESOLUTION_X 96
RESOLUTION_Y 96
AVERAGE_WIDTH 100
X_HEIGHT 11
CAP_HEIGHT 19
ENDPROPERTIES
CHARS 163
STARTCHAR uni0000.uni0000
ENCODING 0
SWIDTH 625 0
DWIDTH 10 0
BBX 0 0 0 0
BITMAP
ENDCHAR
STARTCHAR uni0001.uni0001
ENCODING 1
SWIDTH 625 0
DWIDTH 10 0
BBX 0 0 0 0
BITMAP
ENDCHAR
STARTCHAR uni0002.uni0002
ENCODING 2
SWIDTH 625 0
DWIDTH 10 0
BBX 0 0 0 0
BITMAP
ENDCHAR
STARTCHAR uni0003.uni0003
ENCODING 3
SWIDTH 625 0
DWIDTH 10 0
BBX 0 0 0 0
BITMAP
ENDCHAR
STARTCHAR uni0004.uni0004
ENCODING 4
SWIDTH 625 0
DWIDTH 10 0
BBX 0 0 0 0
BITMAP
ENDCHAR
STARTCHAR uni0005.uni0005
ENCODING 5
SWIDTH 625 0
DWIDTH 10 0
BBX 0 0 0 0
BITMAP
ENDCHAR
STARTCHAR uni0006.uni0006
ENCODING 6
SWIDTH 625 0
DWIDTH 10 0
BBX 0 0 0 0
BITMAP
ENDCHAR
STARTCHAR uni0007.uni0007
ENCODING 7
SWIDTH 625 0
DWIDTH 10 0
BBX 0 0 0 0
BITMAP
ENDCHAR
STARTCHAR uni0008.uni0008
ENCODING 8
SWIDTH 625 0
DWIDTH 10 0
BBX 0 0 0 0
BITMAP
ENDCHAR
STARTCHAR uni0009.uni0009
ENCODING 9
SWIDTH 625 0
DWIDTH 10 0
BBX 0 0 0 0
BITMAP
ENDCHAR
STARTCHAR uni000A.uni000A
ENCODING 10
SWIDTH 625 0
DWIDTH 10 0
BBX 0 0 0 0
BITMAP
ENDCHAR
STARTCHAR uni000B.uni000B
ENCODING 11
SWIDTH 625 0
DWIDTH 10 0
BBX 0 0 0 0
BITMAP
ENDCHAR
STARTCHAR uni000C.uni000C
ENCODING 12
SWIDTH 625 0
DWIDTH 10 0
BBX 0 0 0 0
BITMAP
ENDCHAR
STARTCHAR uni000D.uni000D
ENCODING 13
SWIDTH 625 0
DWIDTH 10 0
BBX 0 0 0 0
BITMAP
ENDCHAR
STARTCHAR uni000E.uni000E
ENCODING 14
SWIDTH 625 0
DWIDTH 10 0
BBX 0 0 0 0
BITMAP
ENDCHAR
STARTCHAR uni000F.uni000F
ENCODING 15
SWIDTH 625 0
DWIDTH 10 0
BBX 0 0 0 0
BITMAP
ENDCHAR
STARTCHAR uni0010.uni0010
ENCODING 16
SWIDTH 625 0
DWIDTH 10 0
BBX 0 0 0 0
BITMAP
ENDCHAR
STARTCHAR uni0011.uni0011
ENCODING 17
SWIDTH 625 0
DWIDTH 10 0
BBX 0 0 0 0
BITMAP
ENDCHAR
STARTCHAR uni0012.uni0012
ENCODING 18
SWIDTH 625 0
DWIDTH 10 0
BBX 0 0 0 0
BITMAP
ENDCHAR
STARTCHAR uni0013.uni0013
ENCODING 19
SWIDTH 625 0
DWIDTH 10 0
BBX 0 0 0 0
BITMAP
ENDCHAR
STARTCHAR uni0014.uni0014
ENCODING 20
SWIDTH 625 0
DWIDTH 10 0
BBX 0 0 0 0
BITMAP
ENDCHAR
STARTCHAR uni0015.uni0015
ENCODING 21
SWIDTH 625 0
DWIDTH 10 0
BBX 0 0 0 0
BITMAP
ENDCHAR
STARTCHAR uni0016.uni0016
ENCODING 22
SWIDTH 625 0
DWIDTH 10 0
BBX 0 0 0 0
BITMAP
ENDCHAR
STARTCHAR uni0017.uni0017
ENCODING 23
SWIDTH 625 0
DWIDTH 10 0
BBX 0 0 0 0
BITMAP
ENDCHAR
STARTCHAR uni0018.uni0018
ENCODING 24
SWIDTH 625 0
DWIDTH 10 0
BBX 0 0 0 0
BITMAP
ENDCHAR
STARTCHAR uni0019.uni0019
ENCODING 25
SWIDTH 625 0
DWIDTH 10 0
BBX 0 0 0 0
BITMAP
ENDCHAR
STARTCHAR uni001A.uni001A
ENCODING 26
SWIDTH 625 0
DWIDTH 10 0
BBX 0 0 0 0
BITMAP
ENDCHAR
STARTCHAR uni001B.uni001B
ENCODING 27
SWIDTH 625 0
DWIDTH 10 0
BBX 0 0 0 0
BITMAP
ENDCHAR
STARTCHAR uni001C.uni001C
ENCODING 28
SWIDTH 625 0
DWIDTH 10 0
BBX 0 0 0 0
BITMAP
ENDCHAR
STARTCHAR uni001D.uni001D
ENCODING 29
SWIDTH 625 0
DWIDTH 10 0
BBX 0 0 0 0
BITMAP
ENDCHAR
STARTCHAR uni001E.uni001E
ENCODING 30
SWIDTH 625 0
DWIDTH 10 0
BBX 0 0 0 0
BITMAP
ENDCHAR
STARTCHAR uni001F.uni001F
ENCODING 31
SWIDTH 625 0
DWIDTH 10 0
BBX 0 0 0 0
BITMAP
ENDCHAR
STARTCHAR space.uni0020
ENCODING 32
SWIDTH 625 0
DWIDTH 10 0
BBX 0 0 0 0
BITMAP
ENDCHAR
STARTCHAR exclam.uni0021
ENCODING 33
SWIDTH 625 0
DWIDTH 10 0
BBX 1 19 5 0
BITMAP
8000
8000
8000
8000
8000
8000
8000
8000
8000
8000
8000
8000
8000
8000
8000
0000
0000
0000
8000
ENDCHAR
STARTCHAR quotedbl.uni0022
ENCODING 34
SWIDTH 625 0
DWIDTH 10 0
BBX 5 5 3 14
BITMAP
8800
8800
8800
8800
8800
ENDCHAR
STARTCHAR numbersign.uni0023
ENCODING 35
SWIDTH 625 0
DWIDTH 10 0
BBX 9 9 1 5
BITMAP
2200
2200
FF80
2200
2200
2200
FF80
2200
2200
ENDCHAR
STARTCHAR dollar.uni0024
ENCODING 36
SWIDTH 625 0
DWIDTH 10 0
BBX 9 17 1 1
BITMAP
0800
0800
0800
3E00
4900
8880
8800
4800
3E00
0900
0880
8880
4900
3E00
0800
0800
0800
ENDCHAR
STARTCHAR percent.uni0025
ENCODING 37
SWIDTH 625 0
DWIDTH 10 0
BBX 11 11 0 4
BITMAP
4020
A040
4080
0100
0200
0400
0800
1000
2040
40A0
8040
ENDCHAR
STARTCHAR ampersand.uni0026
ENCODING 38
SWIDTH 625 0
DWIDTH 10 0
BBX 11 19 0 0
BITMAP
3800
4400
8200
8200
8200
8400
8800
5000
2000
5000
8800
8400
8200
8100
80A0
8040
80A0
4100
3E00
ENDCHAR
STARTCHAR quotesingle.uni0027
ENCODING 39
SWIDTH 625 0
DWIDTH 10 0
BBX 1 5 5 14
BITMAP
8000
8000
8000
8000
8000
ENDCHAR
STARTCHAR parenleft.uni0028
ENCODING 40
SWIDTH 625 0
DWIDTH 10 0
BBX 5 25 3 -6
BITMAP
0800
1000
2000
4000
8000
8000
8000
8000
8000
8000
8000
8000
8000
8000
8000
8000
8000
8000
8000
8000
8000
4000
2000
1000
0800
ENDCHAR
STARTCHAR parenright.uni0029
ENCODING 41
SWIDTH 625 0
DWIDTH 10 0
BBX 5 25 3 -6
BITMAP
8000
4000
2000
1000
0800
0800
0800
0800
0800
0800
0800
0800
0800
0800
0800
0800
0800
0800
0800
0800
0800
1000
2000
4000
8000
ENDCHAR
STARTCHAR asterisk.uni002A
ENCODING 42
SWIDTH 625 0
DWIDTH 10 0
BBX 9 9 1 5
BITMAP
0800
8880
4900
2A00
1C00
2A00
4900
8880
0800
ENDCHAR
STARTCHAR plus.uni002B
ENCODING 43
SWIDTH 625 0
DWIDTH 10 0
BBX 9 9 1 5
BITMAP
0800
0800
0800
0800
FF80
0800
0800
0800
0800
ENDCHAR
STARTCHAR comma.uni002C
ENCODING 44
SWIDTH 625 0
DWIDTH 10 0
BBX 5 5 3 -4
BITMAP
0800
1000
2000
4000
8000
ENDCHAR
STARTCHAR hyphen.uni002D
ENCODING 45
SWIDTH 625 0
DWIDTH 10 0
BBX 9 1 1 9
BITMAP
FF80
ENDCHAR
STARTCHAR period.uni002E
ENCODING 46
SWIDTH 625 0
DWIDTH 10 0
BBX 3 3 4 -1
BITMAP
4000
A000
4000
ENDCHAR
STARTCHAR slash.uni002F
ENCODING 47
SWIDTH 625 0
DWIDTH 10 0
BBX 11 11 0 4
BITMAP
0020
0040
0080
0100
0200
0400
0800
1000
2000
4000
8000
ENDCHAR
STARTCHAR zero.uni0030
ENCODING 48
SWIDTH 625 0
DWIDTH 10 0
BBX 11 19 0 0
BITMAP
1F00
2080
4040
8020
8020
8060
80A0
8120
8220
8420
8820
9020
A020
C020
8020
8020
4040
2080
1F00
ENDCHAR
STARTCHAR one.uni0031
ENCODING 49
SWIDTH 625 0
DWIDTH 10 0
BBX 7 19 2 0
BITMAP
1000
3000
5000
9000
1000
1000
1000
1000
1000
1000
1000
1000
1000
1000
1000
1000
1000
1000
FE00
ENDCHAR
STARTCHAR two.uni0032
ENCODING 50
SWIDTH 625 0
DWIDTH 10 0
BBX 11 19 0 0
BITMAP
1F00
2080
4040
8020
0020
0020
0040
0080
0100
0200
0400
0800
1000
2000
4000
8000
8000
8000
FFE0
ENDCHAR
STARTCHAR three.uni0033
ENCODING 51
SWIDTH 625 0
DWIDTH 10 0
BBX 11 19 0 0
BITMAP
1F00
2080
4040
8020
0020
0020
0020
0040
0080
0700
0080
0040
0020
0020
0020
8020
4040
2080
1F00
ENDCHAR
STARTCHAR four.uni0034
ENCODING 52
SWIDTH 625 0
DWIDTH 10 0
BBX 11 19 0 0
BITMAP
0080
0180
0280
0480
0880
1080
2080
4080
8080
FFE0
0080
0080
0080
0080
0080
0080
0080
0080
0080
ENDCHAR
STARTCHAR five.uni0035
ENCODING 53
SWIDTH 625 0
DWIDTH 10 0
BBX 11 19 0 0
BITMAP
FFE0
8000
8000
8000
8000
8000
8000
8000
8000
FF00
0080
0040
0020
0020
0020
8020
4040
2080
1F00
ENDCHAR
STARTCHAR six.uni0036
ENCODING 54
SWIDTH 625 0
DWIDTH 10 0
BBX 11 19 0 0
BITMAP
1F00
2080
4040
8020
8000
8000
8000
8000
8000
FF00
8080
8040
8020
8020
8020
8020
4040
2080
1F00
ENDCHAR
STARTCHAR seven.uni0037
ENCODING 55
SWIDTH 625 0
DWIDTH 10 0
BBX 11 19 0 0
BITMAP
FFE0
0020
0020
0020
0020
0040
0080
0100
0200
0400
0400
0400
0400
0400
0400
0400
0400
0400
0400
ENDCHAR
STARTCHAR eight.uni0038
ENCODING 56
SWIDTH 625 0
DWIDTH 10 0
BBX 11 19 0 0
BITMAP
1F00
2080
4040
8020
8020
8020
8020
4040
2080
1F00
2080
4040
8020
8020
8020
8020
4040
2080
1F00
ENDCHAR
STARTCHAR nine.uni0039
ENCODING 57
SWIDTH 625 0
DWIDTH 10 0
BBX 11 19 0 0
BITMAP
1F00
2080
4040
8020
8020
8020
8020
4020
2020
1FE0
0020
0020
0020
0020
0020
8020
4040
2080
1F00
ENDCHAR
STARTCHAR colon.uni003A
ENCODING 58
SWIDTH 625 0
DWIDTH 10 0
BBX 3 9 4 5
BITMAP
4000
A000
4000
0000
0000
0000
4000
A000
4000
ENDCHAR
STARTCHAR semicolon.uni003B
ENCODING 59
SWIDTH 625 0
DWIDTH 10 0
BBX 6 18 1 -4
BITMAP
0800
1400
0800
0000
0000
0000
0000
0000
0000
0000
0000
0000
0000
0800
1000
2000
4000
8000
ENDCHAR
STARTCHAR less.uni003C
ENCODING 60
SWIDTH 625 0
DWIDTH 10 0
BBX 5 9 3 5
BITMAP
0800
1000
2000
4000
8000
4000
2000
1000
0800
ENDCHAR
STARTCHAR equal.uni003D
ENCODING 61
SWIDTH 625 0
DWIDTH 10 0
BBX 9 7 1 6
BITMAP
FF80
0000
0000
0000
0000
0000
FF80
ENDCHAR
STARTCHAR greater.uni003E
ENCODING 62
SWIDTH 625 0
DWIDTH 10 0
BBX 5 9 3 5
BITMAP
8000
4000
2000
1000
0800
1000
2000
4000
8000
ENDCHAR
STARTCHAR question.uni003F
ENCODING 63
SWIDTH 625 0
DWIDTH 10 0
BBX 11 19 0 0
BITMAP
1F00
2080
4040
8020
0020
0020
0020
0040
0080
0100
0200
0400
0400
0400
0400
0000
0000
0000
0400
ENDCHAR
STARTCHAR at.uni0040
ENCODING 64
SWIDTH 625 0
DWIDTH 10 0
BBX 11 19 0 0
BITMAP
1F00
2080
4040
8020
8020
83E0
8420
8820
8820
8820
8820
8820
8420
83E0
8000
8000
4000
2000
1FC0
ENDCHAR
STARTCHAR A.uni0041
ENCODING 65
SWIDTH 625 0
DWIDTH 10 0
BBX 11 19 0 0
BITMAP
1F00
2080
4040
8020
8020
8020
8020
8020
8020
FFE0
8020
8020
8020
8020
8020
8020
8020
8020
8020
ENDCHAR
STARTCHAR B.uni0042
ENCODING 66
SWIDTH 625 0
DWIDTH 10 0
BBX 11 19 0 0
BITMAP
FF00
8080
8040
8020
8020
8020
8020
8040
8080
FF00
8080
8040
8020
8020
8020
8020
8040
8080
FF00
ENDCHAR
STARTCHAR C.uni0043
ENCODING 67
SWIDTH 625 0
DWIDTH 10 0
BBX 11 19 0 0
BITMAP
1F00
2080
4040
8020
8000
8000
8000
8000
8000
8000
8000
8000
8000
8000
8000
8020
4040
2080
1F00
ENDCHAR
STARTCHAR D.uni0044
ENCODING 68
SWIDTH 625 0
DWIDTH 10 0
BBX 11 19 0 0
BITMAP
FF00
8080
8040
8020
8020
8020
8020
8020
8020
8020
8020
8020
8020
8020
8020
8020
8040
8080
FF00
ENDCHAR
STARTCHAR E.uni0045
ENCODING 69
SWIDTH 625 0
DWIDTH 10 0
BBX 11 19 0 0
BITMAP
FFE0
8000
8000
8000
8000
8000
8000
8000
8000
FFE0
8000
8000
8000
8000
8000
8000
8000
8000
FFE0
ENDCHAR
STARTCHAR F.uni0046
ENCODING 70
SWIDTH 625 0
DWIDTH 10 0
BBX 11 19 0 0
BITMAP
FFE0
8000
8000
8000
8000
8000
8000
8000
8000
FFE0
8000
8000
8000
8000
8000
8000
8000
8000
8000
ENDCHAR
STARTCHAR G.uni0047
ENCODING 71
SWIDTH 625 0
DWIDTH 10 0
BBX 11 19 0 0
BITMAP
1F00
2080
4040
8020
8000
8000
8000
8000
8000
83E0
8020
8020
8020
8020
8020
8020
4040
2080
1F00
ENDCHAR
STARTCHAR H.uni0048
ENCODING 72
SWIDTH 625 0
DWIDTH 10 0
BBX 11 19 0 0
BITMAP
8020
8020
8020
8020
8020
8020
8020
8020
8020
FFE0
8020
8020
8020
8020
8020
8020
8020
8020
8020
ENDCHAR
STARTCHAR I.uni0049
ENCODING 73
SWIDTH 625 0
DWIDTH 10 0
BBX 11 19 0 0
BITMAP
FFE0
0400
0400
0400
0400
0400
0400
0400
0400
0400
0400
0400
0400
0400
0400
0400
0400
0400
FFE0
ENDCHAR
STARTCHAR J.uni004A
ENCODING 74
SWIDTH 625 0
DWIDTH 10 0
BBX 11 19 0 0
BITMAP
0020
0020
0020
0020
0020
0020
0020
0020
0020
0020
0020
0020
0020
0020
0020
8020
4040
2080
1F00
ENDCHAR
STARTCHAR K.uni004B
ENCODING 75
SWIDTH 625 0
DWIDTH 10 0
BBX 11 19 0 0
BITMAP
8020
8040
8080
8100
8200
8400
8800
9000
A000
C000
A000
9000
8800
8400
8200
8100
8080
8040
8020
ENDCHAR
STARTCHAR L.uni004C
ENCODING 76
SWIDTH 625 0
DWIDTH 10 0
BBX 11 19 0 0
BITMAP
8000
8000
8000
8000
8000
8000
8000
8000
8000
8000
8000
8000
8000
8000
8000
8000
8000
8000
FFE0
ENDCHAR
STARTCHAR M.uni004D
ENCODING 77
SWIDTH 625 0
DWIDTH 10 0
BBX 11 19 0 0
BITMAP
8020
C060
A0A0
9120
8A20
8420
8020
8020
8020
8020
8020
8020
8020
8020
8020
8020
8020
8020
8020
ENDCHAR
STARTCHAR N.uni004E
ENCODING 78
SWIDTH 625 0
DWIDTH 10 0
BBX 11 19 0 0
BITMAP
8020
C020
A020
9020
8820
8420
8220
8120
80A0
8060
8020
8020
8020
8020
8020
8020
8020
8020
8020
ENDCHAR
STARTCHAR O.uni004F
ENCODING 79
SWIDTH 625 0
DWIDTH 10 0
BBX 11 19 0 0
BITMAP
1F00
2080
4040
8020
8020
8020
8020
8020
8020
8020
8020
8020
8020
8020
8020
8020
4040
2080
1F00
ENDCHAR
STARTCHAR P.uni0050
ENCODING 80
SWIDTH 625 0
DWIDTH 10 0
BBX 11 19 0 0
BITMAP
FF00
8080
8040
8020
8020
8020
8020
8040
8080
FF00
8000
8000
8000
8000
8000
8000
8000
8000
8000
ENDCHAR
STARTCHAR Q.uni0051
ENCODING 81
SWIDTH 625 0
DWIDTH 10 0
BBX 11 19 0 0
BITMAP
1F00
2080
4040
8020
8020
8020
8020
8020
8020
8020
8020
8020
8020
8020
8020
8120
4080
2040
1F20
ENDCHAR
STARTCHAR R.uni0052
ENCODING 82
SWIDTH 625 0
DWIDTH 10 0
BBX 11 19 0 0
BITMAP
FF00
8080
8040
8020
8020
8020
8020
8040
8080
FF00
8080
8040
8020
8020
8020
8020
8020
8020
8020
ENDCHAR
STARTCHAR S.uni0053
ENCODING 83
SWIDTH 625 0
DWIDTH 10 0
BBX 11 19 0 0
BITMAP
1F00
2080
4040
8020
8000
8000
8000
4000
2000
1F00
0080
0040
0020
0020
0020
8020
4040
2080
1F00
ENDCHAR
STARTCHAR T.uni0054
ENCODING 84
SWIDTH 625 0
DWIDTH 10 0
BBX 11 19 0 0
BITMAP
FFE0
0400
0400
0400
0400
0400
0400
0400
0400
0400
0400
0400
0400
0400
0400
0400
0400
0400
0400
ENDCHAR
STARTCHAR U.uni0055
ENCODING 85
SWIDTH 625 0
DWIDTH 10 0
BBX 11 19 0 0
BITMAP
8020
8020
8020
8020
8020
8020
8020
8020
8020
8020
8020
8020
8020
8020
8020
8020
4040
2080
1F00
ENDCHAR
STARTCHAR V.uni0056
ENCODING 86
SWIDTH 625 0
DWIDTH 10 0
BBX 11 19 0 0
BITMAP
8020
8020
8020
8020
8020
8020
8020
8020
8020
8020
8020
8020
8020
8020
4040
2080
1100
0A00
0400
ENDCHAR
STARTCHAR W.uni0057
ENCODING 87
SWIDTH 625 0
DWIDTH 10 0
BBX 11 19 0 0
BITMAP
8020
8020
8020
8020
8020
8020
8020
8020
8020
8020
8020
8020
8020
8420
8A20
9120
A0A0
C060
8020
ENDCHAR
STARTCHAR X.uni0058
ENCODING 88
SWIDTH 625 0
DWIDTH 10 0
BBX 11 19 0 0
BITMAP
8020
8020
8020
8020
8020
4040
2080
1100
0A00
0400
0A00
1100
2080
4040
8020
8020
8020
8020
8020
ENDCHAR
STARTCHAR Y.uni0059
ENCODING 89
SWIDTH 625 0
DWIDTH 10 0
BBX 11 19 0 0
BITMAP
8020
8020
8020
8020
8020
4040
2080
1100
0A00
0400
0400
0400
0400
0400
0400
0400
0400
0400
0400
ENDCHAR
STARTCHAR Z.uni005A
ENCODING 90
SWIDTH 625 0
DWIDTH 10 0
BBX 11 19 0 0
BITMAP
FFE0
0020
0020
0020
0020
0040
0080
0100
0200
0400
0800
1000
2000
4000
8000
8000
8000
8000
FFE0
ENDCHAR
STARTCHAR bracketleft.uni005B
ENCODING 91
SWIDTH 625 0
DWIDTH 10 0
BBX 5 25 3 -6
BITMAP
F800
8000
8000
8000
8000
8000
8000
8000
8000
8000
8000
8000
8000
8000
8000
8000
8000
8000
8000
8000
8000
8000
8000
8000
F800
ENDCHAR
STARTCHAR backslash.uni005C
ENCODING 92
SWIDTH 625 0
DWIDTH 10 0
BBX 11 11 0 4
BITMAP
8000
4000
2000
1000
0800
0400
0200
0100
0080
0040
0020
ENDCHAR
STARTCHAR bracketright.uni005D
ENCODING 93
SWIDTH 625 0
DWIDTH 10 0
BBX 5 25 3 -6
BITMAP
F800
0800
0800
0800
0800
0800
0800
0800
0800
0800
0800
0800
0800
0800
0800
0800
0800
0800
0800
0800
0800
0800
0800
0800
F800
ENDCHAR
STARTCHAR asciicircum.uni005E
ENCODING 94
SWIDTH 625 0
DWIDTH 10 0
BBX 9 5 1 14
BITMAP
0800
1400
2200
4100
8080
ENDCHAR
STARTCHAR underscore.uni005F
ENCODING 95
SWIDTH 625 0
DWIDTH 10 0
BBX 11 1 0 0
BITMAP
FFE0
ENDCHAR
STARTCHAR grave.uni0060
ENCODING 96
SWIDTH 625 0
DWIDTH 10 0
BBX 5 5 3 14
BITMAP
8000
4000
2000
1000
0800
ENDCHAR
STARTCHAR a.uni0061
ENCODING 97
SWIDTH 625 0
DWIDTH 10 0
BBX 9 11 1 0
BITMAP
7C00
0200
0100
0080
0080
3F80
4080
8080
8080
4080
3F00
ENDCHAR
STARTCHAR b.uni0062
ENCODING 98
SWIDTH 625 0
DWIDTH 10 0
BBX 9 19 1 0
BITMAP
8000
8000
8000
8000
8000
8000
8000
8000
FC00
8200
8100
8080
8080
8080
8080
8080
8100
8200
FC00
ENDCHAR
STARTCHAR c.uni0063
ENCODING 99
SWIDTH 625 0
DWIDTH 10 0
BBX 9 11 1 0
BITMAP
1C00
2200
4100
8080
8000
8000
8000
8080
4100
2200
1C00
ENDCHAR
STARTCHAR d.uni0064
ENCODING 100
SWIDTH 625 0
DWIDTH 10 0
BBX 9 19 1 0
BITMAP
0080
0080
0080
0080
0080
0080
0080
0080
1F80
2080
4080
8080
8080
8080
8080
8080
4080
2080
1F80
ENDCHAR
STARTCHAR e.uni0065
ENCODING 101
SWIDTH 625 0
DWIDTH 10 0
BBX 9 11 1 0
BITMAP
1C00
2200
4100
8080
8080
FF80
8000
8000
4000
2000
1F00
ENDCHAR
STARTCHAR f.uni0066
ENCODING 102
SWIDTH 625 0
DWIDTH 10 0
BBX 9 19 1 0
BITMAP
0380
0400
0800
1000
1000
1000
1000
1000
FE00
1000
1000
1000
1000
1000
1000
1000
1000
1000
1000
ENDCHAR
STARTCHAR g.uni0067
ENCODING 103
SWIDTH 625 0
DWIDTH 10 0
BBX 9 17 1 -6
BITMAP
1F80
2080
4080
8080
8080
8080
8080
8080
4080
2080
1F80
0080
0080
0080
0100
0200
7C00
ENDCHAR
STARTCHAR h.uni0068
ENCODING 104
SWIDTH 625 0
DWIDTH 10 0
BBX 9 19 1 0
BITMAP
8000
8000
8000
8000
8000
8000
8000
8000
FC00
8200
8100
8080
8080
8080
8080
8080
8080
8080
8080
ENDCHAR
STARTCHAR i.uni0069
ENCODING 105
SWIDTH 625 0
DWIDTH 10 0
BBX 9 15 1 0
BITMAP
0800
0000
0000
0000
F800
0800
0800
0800
0800
0800
0800
0800
0800
0800
FF80
ENDCHAR
STARTCHAR j.uni006A
ENCODING 106
SWIDTH 625 0
DWIDTH 10 0
BBX 6 21 3 -6
BITMAP
0400
0000
0000
0000
7C00
0400
0400
0400
0400
0400
0400
0400
0400
0400
0400
0400
0400
0400
0800
1000
E000
ENDCHAR
STARTCHAR k.uni006B
ENCODING 107
SWIDTH 625 0
DWIDTH 10 0
BBX 7 19 2 0
BITMAP
8000
8000
8000
8000
8000
8000
8000
8000
8200
8400
8800
9000
A000
C000
A000
9000
8800
8400
8200
ENDCHAR
STARTCHAR l.uni006C
ENCODING 108
SWIDTH 625 0
DWIDTH 10 0
BBX 9 19 1 0
BITMAP
F800
0800
0800
0800
0800
0800
0800
0800
0800
0800
0800
0800
0800
0800
0800
0800
0800
0800
FF80
ENDCHAR
STARTCHAR m.uni006D
ENCODING 109
SWIDTH 625 0
DWIDTH 10 0
BBX 9 11 1 0
BITMAP
3600
4900
8880
8880
8880
8880
8880
8880
8880
8880
8880
ENDCHAR
STARTCHAR n.uni006E
ENCODING 110
SWIDTH 625 0
DWIDTH 10 0
BBX 9 11 1 0
BITMAP
FC00
8200
8100
8080
8080
8080
8080
8080
8080
8080
8080
ENDCHAR
STARTCHAR o.uni006F
ENCODING 111
SWIDTH 625 0
DWIDTH 10 0
BBX 9 11 1 0
BITMAP
1C00
2200
4100
8080
8080
8080
8080
8080
4100
2200
1C00
ENDCHAR
STARTCHAR p.uni0070
ENCODING 112
SWIDTH 625 0
DWIDTH 10 0
BBX 9 17 1 -6
BITMAP
FC00
8200
8100
8080
8080
8080
8080
8080
8100
8200
FC00
8000
8000
8000
8000
8000
8000
ENDCHAR
STARTCHAR q.uni0071
ENCODING 113
SWIDTH 625 0
DWIDTH 10 0
BBX 9 17 1 -6
BITMAP
1F80
2080
4080
8080
8080
8080
8080
8080
4080
2080
1F80
0080
0080
0080
0080
0080
0080
ENDCHAR
STARTCHAR r.uni0072
ENCODING 114
SWIDTH 625 0
DWIDTH 10 0
BBX 9 11 1 0
BITMAP
FE00
8100
8080
8000
8000
8000
8000
8000
8000
8000
8000
ENDCHAR
STARTCHAR s.uni0073
ENCODING 115
SWIDTH 625 0
DWIDTH 10 0
BBX 9 11 1 0
BITMAP
3E00
4100
8080
8000
4000
3E00
0100
0080
8080
4100
3E00
ENDCHAR
STARTCHAR t.uni0074
ENCODING 116
SWIDTH 625 0
DWIDTH 10 0
BBX 9 19 1 0
BITMAP
0800
0800
0800
0800
0800
0800
0800
0800
FF80
0800
0800
0800
0800
0800
0800
0800
0800
0800
0800
ENDCHAR
STARTCHAR u.uni0075
ENCODING 117
SWIDTH 625 0
DWIDTH 10 0
BBX 9 11 1 0
BITMAP
8080
8080
8080
8080
8080
8080
8080
8080
8080
4100
3E00
ENDCHAR
STARTCHAR v.uni0076
ENCODING 118
SWIDTH 625 0
DWIDTH 10 0
BBX 9 11 1 0
BITMAP
8080
8080
8080
8080
8080
8080
8080
4100
2200
1400
0800
ENDCHAR
STARTCHAR w.uni0077
ENCODING 119
SWIDTH 625 0
DWIDTH 10 0
BBX 9 11 1 0
BITMAP
8880
8880
8880
8880
8880
8880
8880
8880
8880
4900
3600
ENDCHAR
STARTCHAR x.uni0078
ENCODING 120
SWIDTH 625 0
DWIDTH 10 0
BBX 9 11 1 0
BITMAP
8080
8080
4100
2200
1400
0800
1400
2200
4100
8080
8080
ENDCHAR
STARTCHAR y.uni0079
ENCODING 121
SWIDTH 625 0
DWIDTH 10 0
BBX 9 17 1 -6
BITMAP
8080
8080
8080
8080
8080
8080
8080
8080
4080
2080
1F80
0080
0080
0080
0100
0200
7C00
ENDCHAR
STARTCHAR z.uni007A
ENCODING 122
SWIDTH 625 0
DWIDTH 10 0
BBX 9 11 1 0
BITMAP
FF80
0080
0100
0200
0400
0800
1000
2000
4000
8000
FF80
ENDCHAR
STARTCHAR braceleft.uni007B
ENCODING 123
SWIDTH 625 0
DWIDTH 10 0
BBX 7 25 2 -6
BITMAP
0200
0400
0800
1000
1000
1000
1000
1000
1000
1000
2000
4000
8000
4000
2000
1000
1000
1000
1000
1000
1000
1000
0800
0400
0200
ENDCHAR
STARTCHAR bar.uni007C
ENCODING 124
SWIDTH 625 0
DWIDTH 10 0
BBX 1 25 5 -6
BITMAP
8000
8000
8000
8000
8000
8000
8000
8000
8000
8000
8000
8000
8000
8000
8000
8000
8000
8000
8000
8000
8000
8000
8000
8000
8000
ENDCHAR
STARTCHAR braceright.uni007D
ENCODING 125
SWIDTH 625 0
DWIDTH 10 0
BBX 7 25 2 -6
BITMAP
8000
4000
2000
1000
1000
1000
1000
1000
1000
1000
0800
0400
0200
0400
0800
1000
1000
1000
1000
1000
1000
1000
2000
4000
8000
ENDCHAR
STARTCHAR asciitilde.uni007E
ENCODING 126
SWIDTH 625 0
DWIDTH 10 0
BBX 9 5 1 7
BITMAP
2000
5000
8880
0500
0200
ENDCHAR
STARTCHAR logicalnot.uni00AC
ENCODING 172
SWIDTH 625 0
DWIDTH 10 0
BBX 9 4 1 15
BITMAP
FF80
8000
8000
8000
ENDCHAR
STARTCHAR periodcentered.uni00B7
ENCODING 183
SWIDTH 625 0
DWIDTH 10 0
BBX 3 3 4 8
BITMAP
4000
A000
4000
ENDCHAR
STARTCHAR multiply.uni00D7
ENCODING 215
SWIDTH 625 0
DWIDTH 10 0
BBX 7 7 2 6
BITMAP
8200
4400
2800
1000
2800
4400
8200
ENDCHAR
STARTCHAR Pi.uni03A0
ENCODING 928
SWIDTH 625 0
DWIDTH 10 0
BBX 11 19 0 0
BITMAP
FFE0
4040
4040
4040
4040
4040
4040
4040
4040
4040
4040
4040
4040
4040
4040
4040
4040
4040
E0E0
ENDCHAR
STARTCHAR Sigma.uni03A3
ENCODING 931
SWIDTH 625 0
DWIDTH 10 0
BBX 11 19 0 0
BITMAP
FFE0
8020
4000
2000
1000
0800
0400
0200
0100
0080
0100
0200
0400
0800
1000
2000
4000
8020
FFE0
ENDCHAR
STARTCHAR alpha.uni03B1
ENCODING 945
SWIDTH 625 0
DWIDTH 10 0
BBX 11 11 0 4
BITMAP
0020
3C20
4220
8140
8080
8080
8080
8140
4220
3C20
0020
ENDCHAR
STARTCHAR beta.uni03B2
ENCODING 946
SWIDTH 625 0
DWIDTH 10 0
BBX 9 18 1 -2
BITMAP
7C00
8200
8100
8100
8200
8400
8200
8100
8080
8080
8100
8200
FC00
8000
8000
8000
8000
8000
ENDCHAR
STARTCHAR theta.uni03B8
ENCODING 952
SWIDTH 625 0
DWIDTH 10 0
BBX 11 13 0 3
BITMAP
1F00
2080
4040
8020
8020
8020
FFE0
8020
8020
8020
4040
2080
1F00
ENDCHAR
STARTCHAR phi.uni03C6
ENCODING 966
SWIDTH 625 0
DWIDTH 10 0
BBX 11 13 0 3
BITMAP
2180
4240
8420
8420
8420
8420
8420
4440
2480
1F00
0400
0400
0400
ENDCHAR
STARTCHAR psi.uni03C8
ENCODING 968
SWIDTH 625 0
DWIDTH 10 0
BBX 11 13 0 3
BITMAP
8420
4440
4440
4440
4440
4440
4440
4440
2480
1F00
0400
0400
0400
ENDCHAR
STARTCHAR uni2102.uni2102
ENCODING 8450
SWIDTH 625 0
DWIDTH 10 0
BBX 11 19 0 0
BITMAP
1F00
2080
6040
A020
A000
A000
A000
A000
A000
A000
A000
A000
A000
A000
A000
A020
6040
2080
1F00
ENDCHAR
STARTCHAR uni2115.uni2115
ENCODING 8469
SWIDTH 625 0
DWIDTH 10 0
BBX 11 19 0 0
BITMAP
8020
C020
A020
9020
C820
A420
9220
8920
84A0
8260
8120
80A0
8060
8020
8020
8020
8020
8020
8020
ENDCHAR
STARTCHAR uni211A.uni211A
ENCODING 8474
SWIDTH 625 0
DWIDTH 10 0
BBX 11 19 0 0
BITMAP
1F00
2080
60C0
A0A0
A0A0
A0A0
A0A0
A0A0
A0A0
A0A0
A0A0
A0A0
A0A0
A0A0
A020
A120
6080
2040
1F20
ENDCHAR
STARTCHAR uni211D.uni211D
ENCODING 8477
SWIDTH 625 0
DWIDTH 10 0
BBX 11 19 0 0
BITMAP
FF00
A080
A0C0
A0A0
A0A0
A0A0
A0A0
A0C0
A080
BF00
A280
A140
A0A0
A0A0
A0A0
A0A0
A0A0
A0A0
E0E0
ENDCHAR
STARTCHAR uni2124.uni2124
ENCODING 8484
SWIDTH 625 0
DWIDTH 10 0
BBX 11 19 0 0
BITMAP
FFE0
0020
0020
0020
0060
00A0
0120
0240
0480
0900
1200
2400
4800
9000
A000
C000
8000
8000
FFE0
ENDCHAR
STARTCHAR arrowleft.uni2190
ENCODING 8592
SWIDTH 625 0
DWIDTH 10 0
BBX 11 5 0 7
BITMAP
2000
4000
FFE0
4000
2000
ENDCHAR
STARTCHAR arrowright.uni2192
ENCODING 8594
SWIDTH 625 0
DWIDTH 10 0
BBX 11 5 0 7
BITMAP
0080
0040
FFE0
0040
0080
ENDCHAR
STARTCHAR arrowboth.uni2194
ENCODING 8596
SWIDTH 625 0
DWIDTH 10 0
BBX 11 5 0 7
BITMAP
2080
4040
FFE0
4040
2080
ENDCHAR
STARTCHAR universal.uni2200
ENCODING 8704
SWIDTH 625 0
DWIDTH 10 0
BBX 19 19 0 0
BITMAP
C0006000
40004000
40004000
20008000
20008000
10010000
10010000
08020000
08020000
07FC0000
04040000
02080000
02080000
01100000
01100000
00A00000
00A00000
00400000
00400000
ENDCHAR
STARTCHAR existential.uni2203
ENCODING 8707
SWIDTH 625 0
DWIDTH 10 0
BBX 11 19 4 0
BITMAP
FFE0
0020
0020
0020
0020
0020
0020
0020
0020
FFE0
0020
0020
0020
0020
0020
0020
0020
0020
FFE0
ENDCHAR
STARTCHAR emptyset.uni2205
ENCODING 8709
SWIDTH 625 0
DWIDTH 10 0
BBX 11 11 0 4
BITMAP
1F20
2080
4040
8120
8220
8420
8820
9020
4040
2080
9F00
ENDCHAR
STARTCHAR element.uni2208
ENCODING 8712
SWIDTH 625 0
DWIDTH 10 0
BBX 9 11 1 4
BITMAP
1F80
2000
4000
8000
8000
FF80
8000
8000
4000
2000
1F80
ENDCHAR
STARTCHAR notelement.uni2209
ENCODING 8713
SWIDTH 625 0
DWIDTH 10 0
BBX 11 11 0 4
BITMAP
1FA0
2040
4080
8100
8200
F580
8800
9000
2000
4000
9F80
ENDCHAR
STARTCHAR infinity.uni221E
ENCODING 8734
SWIDTH 625 0
DWIDTH 10 0
BBX 19 9 0 5
BITMAP
1C070000
22088000
41104000
80A02000
80402000
80A02000
41104000
22088000
1C070000
ENDCHAR
STARTCHAR logicaland.uni2227
ENCODING 8743
SWIDTH 625 0
DWIDTH 10 0
BBX 11 12 0 3
BITMAP
0400
0400
0A00
0A00
1100
1100
2080
2080
4040
4040
8020
8020
ENDCHAR
STARTCHAR logicalor.uni2228
ENCODING 8744
SWIDTH 625 0
DWIDTH 10 0
BBX 11 12 0 3
BITMAP
8020
8020
4040
4040
2080
2080
1100
1100
0A00
0A00
0400
0400
ENDCHAR
STARTCHAR intersection.uni2229
ENCODING 8745
SWIDTH 625 0
DWIDTH 10 0
BBX 11 13 0 0
BITMAP
1F00
2080
4040
8020
8020
8020
8020
8020
8020
8020
8020
8020
8020
ENDCHAR
STARTCHAR union.uni222A
ENCODING 8746
SWIDTH 625 0
DWIDTH 10 0
BBX 11 13 0 0
BITMAP
8020
8020
8020
8020
8020
8020
8020
8020
8020
8020
4040
2080
1F00
ENDCHAR
STARTCHAR lessequal.uni2264
ENCODING 8804
SWIDTH 625 0
DWIDTH 10 0
BBX 5 11 3 3
BITMAP
0800
1000
2000
4000
8000
4000
2000
1000
0800
0000
F800
ENDCHAR
STARTCHAR greaterequal.uni2265
ENCODING 8805
SWIDTH 625 0
DWIDTH 10 0
BBX 5 11 3 3
BITMAP
8000
4000
2000
1000
0800
1000
2000
4000
8000
0000
F800
ENDCHAR
STARTCHAR propersubset.uni2282
ENCODING 8834
SWIDTH 625 0
DWIDTH 10 0
BBX 11 13 0 3
BITMAP
1FE0
2000
4000
8000
8000
8000
8000
8000
8000
8000
4000
2000
1FE0
ENDCHAR
STARTCHAR reflexsubset.uni2286
ENCODING 8838
SWIDTH 625 0
DWIDTH 10 0
BBX 11 15 0 1
BITMAP
1FE0
2000
4000
8000
8000
8000
8000
8000
8000
8000
4000
2000
1FE0
0000
1FE0
ENDCHAR
STARTCHAR uni22C2.uni22C2
ENCODING 8898
SWIDTH 625 0
DWIDTH 10 0
BBX 11 25 0 -6
BITMAP
1F00
2080
4040
8020
8020
8020
8020
8020
8020
8020
8020
8020
8020
8020
8020
8020
8020
8020
8020
8020
8020
8020
8020
8020
8020
ENDCHAR
STARTCHAR uni22C3.uni22C3
ENCODING 8899
SWIDTH 625 0
DWIDTH 10 0
BBX 11 25 0 -6
BITMAP
8020
8020
8020
8020
8020
8020
8020
8020
8020
8020
8020
8020
8020
8020
8020
8020
8020
8020
8020
8020
8020
8020
4040
2080
1F00
ENDCHAR
STARTCHAR uni27E8.uni27E8
ENCODING 10216
SWIDTH 625 0
DWIDTH 10 0
BBX 7 25 2 -6
BITMAP
0200
0200
0400
0400
0800
0800
1000
1000
2000
2000
4000
4000
8000
4000
4000
2000
2000
1000
1000
0800
0800
0400
0400
0200
0200
ENDCHAR
STARTCHAR uni27E9.uni27E9
ENCODING 10217
SWIDTH 625 0
DWIDTH 10 0
BBX 7 25 2 -6
BITMAP
8000
8000
4000
4000
2000
2000
1000
1000
0800
0800
0400
0400
0200
0400
0400
0800
0800
1000
1000
2000
2000
4000
4000
8000
8000
ENDCHAR
ENDFONT
